<svg width="686" height="42" viewBox="0 0 686 42" fill="none" xmlns="http://www.w3.org/2000/svg">
<path d="M21.8066 18.1105C21.895 17.5212 21.9687 16.9319 22.0276 16.3425C22.116 15.7238 22.1602 15.105 22.1602 14.4862C22.1602 13.7201 22.0866 12.9392 21.9392 12.1436C21.7919 11.3481 21.5267 10.6114 21.1436 9.9337C20.4659 8.66667 19.4788 7.69429 18.1823 7.01658C16.8858 6.33886 15.5304 6 14.116 6C12.4365 6 10.9337 6.48619 9.60773 7.45857C8.78269 8.07735 8.04604 8.82873 7.39779 9.71271C6.77901 10.5967 6.24862 11.5396 5.80663 12.5414C5.39411 13.5433 5.06998 14.5746 4.83425 15.6354C4.62799 16.6667 4.52486 17.6538 4.52486 18.5967C4.52486 19.7753 4.67219 20.9098 4.96685 22C5.29098 23.0608 5.77716 24.0037 6.42541 24.8287C7.10313 25.6243 7.94291 26.2726 8.94475 26.7735C9.94659 27.2744 11.1252 27.5249 12.4807 27.5249C13.0405 27.5249 13.6004 27.4512 14.1602 27.3039C14.7495 27.1565 15.2799 26.9503 15.7514 26.6851C16.6059 26.2136 17.3573 25.639 18.0055 24.9613C18.6832 24.2836 19.2726 23.547 19.7735 22.7514C20.2744 21.9558 20.7017 21.116 21.0552 20.232C21.4088 19.3186 21.7035 18.4199 21.9392 17.5359L21.8066 18.1105ZM25.3425 18.5525C25.0773 19.5838 24.6943 20.674 24.1934 21.8232C23.7219 22.9724 23.1473 24.0626 22.4696 25.0939C21.8214 26.1252 21.0552 27.0681 20.1713 27.9227C19.3168 28.7772 18.3738 29.4254 17.3425 29.8674C16.8711 30.0442 16.4586 30.1915 16.105 30.3094C15.7514 30.4567 15.3978 30.5746 15.0442 30.663C14.6906 30.7514 14.3075 30.825 13.895 30.884C13.512 30.9724 13.07 31.0313 12.5691 31.0608C12.5101 31.0608 12.4365 31.0608 12.3481 31.0608C12.2597 31.0902 12.1713 31.105 12.0829 31.105C11.3168 31.105 10.5359 30.9724 9.74033 30.7072C8.94475 30.4715 8.19337 30.2357 7.48619 30C6.27808 29.558 5.26151 28.9245 4.43646 28.0994C3.61142 27.2744 2.9337 26.3462 2.40331 25.3149C1.90239 24.2541 1.53407 23.1344 1.29834 21.9558C1.09208 20.7772 0.98895 19.5985 0.98895 18.4199C0.98895 17.9779 1.00368 17.5506 1.03315 17.1381C1.06261 16.6961 1.10681 16.2689 1.16575 15.8564C1.31308 14.9134 1.56354 13.8969 1.91713 12.8066C2.30018 11.7164 2.77164 10.6556 3.33149 9.62431C3.89134 8.56354 4.52486 7.59116 5.23204 6.70718C5.96869 5.82321 6.74954 5.11602 7.57459 4.58564C8.60589 3.90792 9.71087 3.407 10.8895 3.08287C12.0681 2.72928 13.2615 2.55249 14.4696 2.55249C16.4733 2.55249 18.3591 3.02394 20.1271 3.96685C21.895 4.90976 23.2947 6.35359 24.326 8.29834C24.8269 9.24125 25.1805 10.2431 25.3867 11.3039C25.593 12.3352 25.6961 13.3812 25.6961 14.442C25.6961 15.1197 25.6667 15.8122 25.6077 16.5193C25.5488 17.1971 25.4604 17.8748 25.3425 18.5525ZM33.8135 29.2928C33.3126 29.5875 32.8411 29.7201 32.3991 29.6906C31.9571 29.6317 31.6035 29.4696 31.3384 29.2044C31.0732 28.9392 30.9111 28.5856 30.8522 28.1436C30.8227 27.7017 30.9553 27.2302 31.25 26.7293L31.3826 26.5967V3.61326C31.5004 3.05341 31.7214 2.62615 32.0455 2.33149C32.3991 2.03683 32.7527 1.8895 33.1063 1.8895C33.4894 1.86004 33.8577 1.9779 34.2113 2.24309C34.5649 2.50829 34.8301 2.92081 35.0069 3.48066V14C35.6551 13.3812 36.3476 12.895 37.0842 12.5414C37.7619 12.1584 38.3954 11.8932 38.9848 11.7459C39.6035 11.5691 40.296 11.4365 41.0621 11.3481C41.8282 11.2302 42.5501 11.3039 43.2279 11.5691C43.9056 11.8343 44.5686 12.1584 45.2168 12.5414C46.0713 13.0424 46.7196 13.7348 47.1616 14.6188C47.6035 15.5028 47.9129 16.4604 48.0897 17.4917C48.2665 18.4936 48.3402 19.5249 48.3107 20.5856C48.2813 21.6169 48.1929 22.5451 48.0455 23.3702C47.9866 23.8416 47.854 24.2983 47.6477 24.7403C47.4415 25.1529 47.2205 25.5654 46.9848 25.9779C46.5722 26.8029 46.0124 27.5101 45.3052 28.0994C44.598 28.6593 43.8024 29.116 42.9185 29.4696C42.064 29.7937 41.1652 30.0147 40.2223 30.1326C39.3089 30.2799 38.4396 30.3241 37.6146 30.2652C36.9369 30.2063 36.2886 30.1031 35.6698 29.9558C35.0511 29.8085 34.447 29.558 33.8577 29.2044C33.8577 29.2339 33.843 29.2634 33.8135 29.2928ZM35.0069 19.4807V25.6685C35.0953 25.7274 35.2573 25.8158 35.4931 25.9337C35.552 25.9926 35.6109 26.0368 35.6698 26.0663C35.7288 26.0958 35.7877 26.14 35.8466 26.1989C37.3789 26.7882 38.8374 26.8913 40.2223 26.5083C41.6072 26.1252 42.8301 25.3149 43.8908 24.0773C44.1855 23.3702 44.3918 22.7219 44.5096 22.1326C44.657 21.5138 44.7306 20.9098 44.7306 20.3204C44.7306 19.7017 44.6717 19.0829 44.5538 18.4641C44.436 17.8453 44.2444 17.1823 43.9792 16.4751C43.8319 16.3278 43.6993 16.1805 43.5814 16.0331C43.4931 15.8564 43.3752 15.6943 43.2279 15.547C43.0805 15.488 42.9332 15.4144 42.7859 15.326C42.668 15.2376 42.5354 15.1639 42.3881 15.105C42.2407 15.0755 42.0787 15.046 41.9019 15.0166C41.7251 14.9871 41.563 14.9576 41.4157 14.9282C40.0013 15.1639 38.8374 15.6501 37.924 16.3867C37.0105 17.0939 36.156 18.0074 35.3605 19.1271L35.0069 19.4807ZM68.7046 28.674C68.6751 29.3517 68.4689 29.8527 68.0858 30.1768C67.7322 30.5304 67.3344 30.7072 66.8924 30.7072C66.4799 30.7072 66.0969 30.5451 65.7433 30.221C65.3897 29.9263 65.1687 29.4549 65.0803 28.8066C65.0803 27.4512 65.0655 26.1105 65.0361 24.7845C65.0361 23.4291 65.0361 22.0737 65.0361 20.7182C65.0361 19.7459 65.0361 18.7735 65.0361 17.8011C65.0655 16.8287 65.0066 15.8564 64.8593 14.884C64.6236 14.442 64.3584 14.1768 64.0637 14.0884C63.7985 13.9705 63.4744 13.9116 63.0913 13.9116C62.0895 13.9116 61.1024 14.1621 60.13 14.663C59.1576 15.1344 58.3915 15.7974 57.8317 16.6519C57.5075 17.1529 57.2423 17.5801 57.0361 17.9337C56.8593 18.2578 56.7414 18.744 56.6825 19.3923C56.6825 20.895 56.6825 22.3978 56.6825 23.9006C56.6825 25.4033 56.6972 26.9061 56.7267 28.4088C56.6972 29.0866 56.491 29.6022 56.1079 29.9558C55.7543 30.2799 55.3565 30.442 54.9145 30.442C54.502 30.442 54.119 30.2947 53.7654 30C53.4118 29.6759 53.1908 29.1897 53.1024 28.5414C53.1024 27.1271 53.1024 25.7569 53.1024 24.4309C53.1024 23.105 53.0876 21.7937 53.0582 20.4972C53.0582 19.2007 53.0582 17.8895 53.0582 16.5635C53.0582 15.2081 53.0582 13.8232 53.0582 12.4088C53.2055 11.8195 53.4412 11.3775 53.7654 11.0829C54.0895 10.7882 54.4578 10.6409 54.8703 10.6409C55.2534 10.6409 55.607 10.7735 55.9311 11.0387C56.2847 11.3039 56.5352 11.7164 56.6825 12.2762V12.6298C57.537 11.8932 58.4946 11.3186 59.5554 10.9061C60.6457 10.4641 61.7359 10.2431 62.8261 10.2431C63.9164 10.2431 64.933 10.4936 65.8759 10.9945C66.8482 11.4954 67.6291 12.3057 68.2184 13.4254C68.4247 13.8085 68.5573 14.2947 68.6162 14.884C68.7046 15.4438 68.7488 16.0479 68.7488 16.6961C68.7783 17.3149 68.7783 17.9632 68.7488 18.6409C68.7193 19.2891 68.7046 19.9079 68.7046 20.4972V25.7127V28.674ZM73.5414 19.1713C73.8655 18.2284 74.2633 17.3149 74.7348 16.4309C75.2062 15.5175 75.7661 14.6924 76.4143 13.9558C77.0626 13.2192 77.7992 12.5856 78.6243 12.0552C79.4788 11.5249 80.4217 11.1418 81.453 10.9061C83.162 10.523 84.65 10.6556 85.9171 11.3039C87.2136 11.9521 88.2449 12.8803 89.011 14.0884C89.7771 15.2965 90.278 16.6814 90.5138 18.2431C90.779 19.7753 90.72 21.2486 90.337 22.663C89.895 24.4015 89.1141 26.0221 87.9944 27.5249C86.8747 29.0276 85.4604 30.1179 83.7513 30.7956C82.4843 31.2965 81.2615 31.4733 80.0828 31.326C78.9337 31.2081 77.8876 30.8398 76.9447 30.221C76.0313 29.6022 75.2504 28.7919 74.6022 27.7901C73.9539 26.7882 73.5119 25.6538 73.2762 24.3867C73.1289 23.5912 73.0699 22.8103 73.0994 22.0442C73.1583 21.2781 73.2615 20.512 73.4088 19.7459L73.5414 19.1713ZM76.9889 20.1878C76.871 20.8066 76.7826 21.3812 76.7237 21.9116C76.6942 22.4125 76.7237 22.9871 76.8121 23.6354C76.9005 24.4309 77.151 25.1529 77.5635 25.8011C77.976 26.4199 78.4769 26.9061 79.0663 27.2597C79.6556 27.5838 80.3038 27.7459 81.011 27.7459C81.7477 27.7164 82.4843 27.4807 83.221 27.0387C84.1933 26.4494 84.9594 25.6832 85.5193 24.7403C86.1086 23.7974 86.5506 22.7808 86.8453 21.6906C87.081 20.8066 87.1252 19.8637 86.9779 18.8619C86.86 17.86 86.5653 16.9761 86.0939 16.2099C85.6224 15.4438 84.9889 14.8987 84.1933 14.5746C83.3977 14.221 82.4548 14.2652 81.3646 14.7072C80.186 15.2081 79.2578 15.9595 78.5801 16.9613C77.9024 17.9632 77.372 19.0387 76.9889 20.1878ZM107.922 10.5525C108.423 10.14 108.91 9.94844 109.381 9.9779C109.882 10.0074 110.28 10.1694 110.574 10.4641C110.869 10.7587 111.031 11.1565 111.061 11.6575C111.09 12.1289 110.898 12.6151 110.486 13.116C109.396 14.1768 108.32 15.2523 107.259 16.3425C106.228 17.4328 105.212 18.5378 104.21 19.6575C105.447 21.0718 106.611 22.5304 107.701 24.0331C108.821 25.5064 109.867 27.0387 110.84 28.6298C111.016 29.1897 111.016 29.6759 110.84 30.0884C110.692 30.5009 110.456 30.7956 110.132 30.9724C109.808 31.1786 109.425 31.2523 108.983 31.1934C108.571 31.1344 108.158 30.8987 107.746 30.4862C106.891 29.0718 105.963 27.7017 104.961 26.3757C103.959 25.0203 102.913 23.709 101.823 22.442C99.8782 24.8287 98.0218 27.3775 96.2539 30.0884C95.8414 30.5893 95.3846 30.8692 94.8837 30.9282C94.4123 30.9871 93.9997 30.884 93.6461 30.6188C93.2926 30.3831 93.0568 30.0295 92.939 29.558C92.8506 29.0571 92.9832 28.5267 93.3368 27.9669C94.2502 26.523 95.2078 25.1087 96.2097 23.7238C97.241 22.3389 98.3018 20.9834 99.392 19.6575C98.4491 18.6262 97.4767 17.6096 96.4749 16.6077C95.5025 15.5764 94.5154 14.5451 93.5136 13.5138C93.0421 13.0424 92.7916 12.5709 92.7622 12.0994C92.7622 11.5985 92.8948 11.2007 93.16 10.9061C93.4546 10.582 93.8377 10.3904 94.3091 10.3315C94.8101 10.2431 95.3257 10.3904 95.8561 10.7735C96.8579 11.8048 97.8598 12.8361 98.8616 13.8674C99.8635 14.8692 100.836 15.8858 101.779 16.9171C102.751 15.8269 103.753 14.7514 104.784 13.6906C105.816 12.6298 106.862 11.5838 107.922 10.5525ZM118.989 28.5856C118.96 29.2634 118.753 29.7643 118.37 30.0884C118.017 30.442 117.619 30.6188 117.177 30.6188C116.765 30.6188 116.381 30.4567 116.028 30.1326C115.674 29.8379 115.453 29.3665 115.365 28.7182C115.335 25.9484 115.306 23.1197 115.277 20.232C115.277 17.3444 115.262 14.5157 115.232 11.7459C115.38 11.1565 115.615 10.7146 115.939 10.4199C116.264 10.1252 116.632 9.9779 117.044 9.9779C117.428 9.9779 117.781 10.1105 118.105 10.3757C118.459 10.6409 118.709 11.0534 118.857 11.6133C118.886 14.3831 118.901 17.2118 118.901 20.0994C118.93 22.9871 118.96 25.8158 118.989 28.5856ZM114.923 4.54144C114.923 3.89319 115.129 3.34807 115.542 2.90608C115.954 2.43462 116.455 2.1989 117.044 2.1989C117.634 2.1989 118.135 2.43462 118.547 2.90608C118.989 3.34807 119.21 3.89319 119.21 4.54144C119.21 5.16022 118.989 5.70534 118.547 6.1768C118.135 6.61879 117.634 6.83978 117.044 6.83978C116.455 6.83978 115.954 6.61879 115.542 6.1768C115.129 5.70534 114.923 5.16022 114.923 4.54144ZM124.127 19.1713C124.451 18.2284 124.849 17.3149 125.321 16.4309C125.792 15.5175 126.352 14.6924 127 13.9558C127.649 13.2192 128.385 12.5856 129.21 12.0552C130.065 11.5249 131.008 11.1418 132.039 10.9061C133.748 10.523 135.236 10.6556 136.503 11.3039C137.8 11.9521 138.831 12.8803 139.597 14.0884C140.363 15.2965 140.864 16.6814 141.1 18.2431C141.365 19.7753 141.306 21.2486 140.923 22.663C140.481 24.4015 139.7 26.0221 138.58 27.5249C137.461 29.0276 136.046 30.1179 134.337 30.7956C133.07 31.2965 131.847 31.4733 130.669 31.326C129.52 31.2081 128.474 30.8398 127.531 30.221C126.617 29.6022 125.836 28.7919 125.188 27.7901C124.54 26.7882 124.098 25.6538 123.862 24.3867C123.715 23.5912 123.656 22.8103 123.685 22.0442C123.744 21.2781 123.847 20.512 123.995 19.7459L124.127 19.1713ZM127.575 20.1878C127.457 20.8066 127.369 21.3812 127.31 21.9116C127.28 22.4125 127.31 22.9871 127.398 23.6354C127.486 24.4309 127.737 25.1529 128.149 25.8011C128.562 26.4199 129.063 26.9061 129.652 27.2597C130.242 27.5838 130.89 27.7459 131.597 27.7459C132.334 27.7164 133.07 27.4807 133.807 27.0387C134.779 26.4494 135.545 25.6832 136.105 24.7403C136.695 23.7974 137.137 22.7808 137.431 21.6906C137.667 20.8066 137.711 19.8637 137.564 18.8619C137.446 17.86 137.151 16.9761 136.68 16.2099C136.208 15.4438 135.575 14.8987 134.779 14.5746C133.984 14.221 133.041 14.2652 131.951 14.7072C130.772 15.2081 129.844 15.9595 129.166 16.9613C128.488 17.9632 127.958 19.0387 127.575 20.1878ZM162.903 26.9503C163.227 27.3628 163.389 27.8195 163.389 28.3204C163.389 28.8214 163.227 29.2339 162.903 29.558C162.579 29.8527 162.181 30 161.709 30C161.061 30 160.501 29.7053 160.03 29.116C159.558 28.4972 159.16 27.8048 158.836 27.0387C158.07 27.8637 157.172 28.5709 156.14 29.1602C155.109 29.7201 154.048 30 152.958 30C152.162 30 151.396 29.8674 150.66 29.6022C149.923 29.3076 149.23 28.9245 148.582 28.453C147.963 27.9521 147.404 27.3775 146.903 26.7293C146.431 26.081 146.078 25.4033 145.842 24.6961C145.606 23.93 145.444 23.0902 145.356 22.1768C145.267 21.2339 145.223 20.2615 145.223 19.2597C145.223 18.0516 145.253 16.8729 145.312 15.7238C145.37 14.5746 145.4 13.558 145.4 12.674C145.547 12.0847 145.783 11.6427 146.107 11.3481C146.431 11.0534 146.8 10.9061 147.212 10.9061C147.595 10.9061 147.949 11.0387 148.273 11.3039C148.626 11.5691 148.877 11.9816 149.024 12.5414C149.024 13.9263 148.995 15.267 148.936 16.5635C148.906 17.8306 148.892 19.186 148.892 20.6298C148.892 22.2799 149.245 23.6354 149.952 24.6961C150.66 25.7569 151.617 26.2873 152.825 26.2873C153.267 26.2873 153.709 26.1989 154.151 26.0221C154.593 25.8453 155.006 25.6096 155.389 25.3149C155.772 25.0203 156.126 24.6814 156.45 24.2983C156.774 23.9153 157.068 23.5322 157.334 23.1492C157.393 23.0902 157.466 23.046 157.555 23.0166C157.643 22.9576 157.717 22.8987 157.776 22.8398C157.599 21.3665 157.51 19.8785 157.51 18.3757C157.51 17.5212 157.51 16.6667 157.51 15.8122C157.54 14.9282 157.614 14.1326 157.731 13.4254C157.879 12.6888 158.1 12.0994 158.394 11.6575C158.719 11.186 159.16 10.9503 159.72 10.9503C160.162 10.9503 160.56 11.1271 160.914 11.4807C161.267 11.8048 161.444 12.291 161.444 12.9392C161.444 13.6169 161.385 14.442 161.267 15.4144C161.179 16.3867 161.135 17.4033 161.135 18.4641C161.135 19.2891 161.164 20.1142 161.223 20.9392C161.282 21.7643 161.37 22.5599 161.488 23.326C161.636 24.0626 161.812 24.7403 162.019 25.3591C162.254 25.9779 162.549 26.5083 162.903 26.9503ZM166.693 26.7735C166.428 26.2431 166.34 25.7716 166.428 25.3591C166.516 24.9171 166.693 24.5783 166.958 24.3425C167.253 24.0773 167.621 23.9448 168.063 23.9448C168.505 23.9448 168.962 24.1068 169.433 24.4309C170.111 25.2855 170.907 25.9484 171.82 26.4199C172.763 26.8913 173.765 27.1713 174.826 27.2597L175.754 26.9945C175.99 26.8177 176.152 26.6998 176.24 26.6409C176.329 26.582 176.387 26.5378 176.417 26.5083C176.476 26.4494 176.535 26.3757 176.594 26.2873C176.682 26.1989 176.815 26.0368 176.991 25.8011C177.05 25.6832 177.095 25.5654 177.124 25.4475C177.154 25.3297 177.198 25.1971 177.257 25.0497C177.257 24.9024 177.257 24.7698 177.257 24.6519C177.286 24.5341 177.301 24.4015 177.301 24.2541L177.036 23.4586C176.947 23.3407 176.844 23.2228 176.726 23.105C176.638 22.9871 176.55 22.8692 176.461 22.7514C175.724 22.2799 174.988 21.9411 174.251 21.7348C173.515 21.5285 172.793 21.3223 172.085 21.116C171.408 20.8803 170.73 20.5856 170.052 20.232C169.404 19.8785 168.785 19.3039 168.196 18.5083C167.636 17.8011 167.327 16.9908 167.268 16.0773C167.238 15.1344 167.386 14.2357 167.71 13.3812C168.063 12.5267 168.564 11.7753 169.212 11.1271C169.89 10.4494 170.656 10.0221 171.511 9.8453C172.748 9.55065 174.001 9.52118 175.268 9.75691C176.564 9.99263 177.772 10.4052 178.892 10.9945C179.422 11.3775 179.732 11.8195 179.82 12.3204C179.909 12.7919 179.835 13.2044 179.599 13.558C179.393 13.9116 179.054 14.1621 178.583 14.3094C178.141 14.4567 177.625 14.3831 177.036 14.0884C176.329 13.7053 175.577 13.4549 174.782 13.337C174.015 13.2192 173.235 13.2192 172.439 13.337C172.351 13.3959 172.247 13.4401 172.13 13.4696C172.041 13.4991 171.953 13.5433 171.864 13.6022C171.54 13.9558 171.305 14.3094 171.157 14.663C171.01 14.9871 170.951 15.3996 170.98 15.9006C171.01 16.0184 171.084 16.1952 171.201 16.4309C171.29 16.5488 171.378 16.6519 171.467 16.7403C171.555 16.8287 171.643 16.9319 171.732 17.0497C172.439 17.4328 173.205 17.7422 174.03 17.9779C174.885 18.1842 175.71 18.4346 176.505 18.7293C177.301 18.9945 178.038 19.3628 178.715 19.8343C179.393 20.2762 179.923 20.9392 180.306 21.8232C181.014 23.5028 181.117 25.0497 180.616 26.4641C180.144 27.8785 179.172 29.0718 177.699 30.0442C177.316 30.2799 176.888 30.4715 176.417 30.6188C175.945 30.7956 175.503 30.884 175.091 30.884C173.5 30.884 171.938 30.5304 170.406 29.8232C168.874 29.0866 167.636 28.07 166.693 26.7735ZM217.801 28.0994C217.801 28.1289 217.786 28.1436 217.757 28.1436C217.933 28.5562 217.978 28.9392 217.889 29.2928C217.801 29.6464 217.624 29.9263 217.359 30.1326C217.123 30.3683 216.799 30.5157 216.387 30.5746C216.003 30.6335 215.576 30.5451 215.105 30.3094C214.84 30.0442 214.589 29.7643 214.353 29.4696C214.118 29.1455 213.911 28.8214 213.735 28.4972C213.145 28.9982 212.512 29.4696 211.834 29.9116C211.156 30.3241 210.479 30.5451 209.801 30.5746C208.622 30.6335 207.458 30.6483 206.309 30.6188C205.16 30.5893 204.07 30.2063 203.038 29.4696C202.184 28.8508 201.521 28.1142 201.05 27.2597C200.608 26.4052 200.313 25.5064 200.166 24.5635C200.048 23.5912 200.062 22.6041 200.21 21.6022C200.357 20.6004 200.608 19.6427 200.961 18.7293C201.108 18.3168 201.3 17.919 201.536 17.5359C201.771 17.1529 202.007 16.7551 202.243 16.3425C202.567 15.7532 202.935 15.2081 203.348 14.7072C203.76 14.1768 204.232 13.7201 204.762 13.337C205.145 13.0718 205.514 12.8066 205.867 12.5414C206.25 12.2762 206.633 12.0258 207.016 11.7901C207.282 11.6133 207.679 11.4365 208.21 11.2597C208.77 11.0534 209.359 10.8913 209.978 10.7735C210.626 10.6262 211.259 10.5525 211.878 10.5525C212.526 10.5525 213.072 10.6409 213.514 10.8177C213.926 10.7587 214.324 10.8619 214.707 11.1271C215.119 11.3923 215.429 11.8195 215.635 12.4088C215.635 14.4125 215.62 16.4309 215.591 18.4641C215.561 20.4972 215.694 22.5157 215.989 24.5193C216.018 24.7845 216.121 25.1087 216.298 25.4917C216.504 25.8453 216.711 26.1989 216.917 26.5525C217.153 26.9061 217.359 27.2302 217.536 27.5249C217.712 27.8195 217.801 28.011 217.801 28.0994ZM212.188 25.0497C212.247 25.0203 212.291 24.9908 212.32 24.9613C212.35 24.9319 212.394 24.9024 212.453 24.8729C212.07 23.105 211.878 21.2781 211.878 19.3923C211.908 17.477 211.937 15.7238 211.967 14.1326C211.701 14.1326 211.407 14.1621 211.083 14.221C210.759 14.2799 210.434 14.3683 210.11 14.4862C209.816 14.5746 209.536 14.663 209.271 14.7514C209.035 14.8398 208.858 14.9134 208.74 14.9724C207.856 15.3849 207.105 15.93 206.486 16.6077C205.867 17.256 205.352 17.9926 204.939 18.8177C204.556 19.6133 204.261 20.4678 204.055 21.3812C203.849 22.2652 203.746 23.1639 203.746 24.0773C203.805 24.3131 203.878 24.5488 203.967 24.7845C204.055 25.0203 204.129 25.256 204.188 25.4917C204.335 25.639 204.482 25.8011 204.63 25.9779C204.806 26.1547 204.983 26.3168 205.16 26.4641C205.425 26.582 205.69 26.6851 205.956 26.7735C206.221 26.8619 206.486 26.9503 206.751 27.0387C207.252 27.0387 207.738 27.0534 208.21 27.0829C208.681 27.1123 209.153 27.0534 209.624 26.9061C210.066 26.6114 210.493 26.3168 210.906 26.0221C211.348 25.7274 211.775 25.4033 212.188 25.0497ZM238.718 26.8619C239.101 27.3923 239.248 27.9079 239.16 28.4088C239.101 28.8803 238.91 29.2634 238.585 29.558C238.291 29.8232 237.893 29.9558 237.392 29.9558C236.921 29.9263 236.449 29.6759 235.978 29.2044C235.83 29.0571 235.698 28.9098 235.58 28.7624C235.462 28.5856 235.374 28.4236 235.315 28.2762C234.431 29.0424 233.399 29.6317 232.221 30.0442C231.072 30.4862 229.893 30.7072 228.685 30.7072C227.506 30.7072 226.372 30.4715 225.282 30C224.191 29.4991 223.278 28.733 222.541 27.7017C221.981 26.9061 221.569 26.0221 221.304 25.0497C221.068 24.0479 220.95 23.046 220.95 22.0442C220.95 21.0129 221.068 20.0111 221.304 19.0387C221.569 18.0368 221.893 17.1087 222.276 16.2541C222.63 15.488 223.13 14.7956 223.779 14.1768C224.456 13.558 225.164 13.0571 225.9 12.674C226.578 12.291 227.329 11.9816 228.154 11.7459C229.009 11.4807 229.819 11.3333 230.585 11.3039C231.293 11.3039 232 11.3186 232.707 11.3481C233.414 11.3775 234.107 11.4954 234.784 11.7017C234.755 9.58011 234.725 7.79742 234.696 6.35359C234.696 4.8803 234.696 3.89319 234.696 3.39227C234.814 2.83241 235.035 2.40516 235.359 2.1105C235.712 1.81584 236.066 1.66851 236.42 1.66851C236.803 1.63904 237.171 1.75691 237.525 2.0221C237.878 2.28729 238.143 2.69982 238.32 3.25967V26.3757C238.379 26.4641 238.438 26.5525 238.497 26.6409C238.585 26.6998 238.659 26.7735 238.718 26.8619ZM234.828 23.6796V23.0608C234.828 21.9705 234.828 20.7772 234.828 19.4807C234.828 18.1547 234.814 16.9024 234.784 15.7238L234.519 15.5912C234.431 15.5322 234.342 15.4733 234.254 15.4144C234.195 15.3554 234.121 15.2965 234.033 15.2376C233.149 14.9724 232.221 14.8545 231.248 14.884C230.276 14.9134 229.363 15.105 228.508 15.4586C227.654 15.7827 226.887 16.2689 226.21 16.9171C225.561 17.5654 225.105 18.3904 224.84 19.3923C224.604 20.3057 224.515 21.1013 224.574 21.779C224.633 22.4567 224.722 23.2523 224.84 24.1657C224.957 24.4015 225.061 24.6372 225.149 24.8729C225.267 25.1087 225.385 25.3444 225.503 25.5801L226.386 26.4641C226.74 26.582 227.079 26.7293 227.403 26.9061C228.582 27.0239 229.657 26.965 230.63 26.7293C231.631 26.4936 232.589 25.9779 233.503 25.1823C233.532 25.1234 233.591 25.0497 233.679 24.9613C233.797 24.8435 233.915 24.7256 234.033 24.6077C234.151 24.4899 234.254 24.3867 234.342 24.2983C234.46 24.1805 234.534 24.1068 234.563 24.0773L234.828 23.6796ZM242.513 26.7735C242.248 26.2431 242.16 25.7716 242.248 25.3591C242.337 24.9171 242.513 24.5783 242.779 24.3425C243.073 24.0773 243.442 23.9448 243.884 23.9448C244.326 23.9448 244.782 24.1068 245.254 24.4309C245.932 25.2855 246.727 25.9484 247.641 26.4199C248.583 26.8913 249.585 27.1713 250.646 27.2597L251.574 26.9945C251.81 26.8177 251.972 26.6998 252.06 26.6409C252.149 26.582 252.208 26.5378 252.237 26.5083C252.296 26.4494 252.355 26.3757 252.414 26.2873C252.502 26.1989 252.635 26.0368 252.812 25.8011C252.871 25.6832 252.915 25.5654 252.944 25.4475C252.974 25.3297 253.018 25.1971 253.077 25.0497C253.077 24.9024 253.077 24.7698 253.077 24.6519C253.106 24.5341 253.121 24.4015 253.121 24.2541L252.856 23.4586C252.768 23.3407 252.664 23.2228 252.547 23.105C252.458 22.9871 252.37 22.8692 252.281 22.7514C251.545 22.2799 250.808 21.9411 250.071 21.7348C249.335 21.5285 248.613 21.3223 247.906 21.116C247.228 20.8803 246.55 20.5856 245.873 20.232C245.224 19.8785 244.606 19.3039 244.016 18.5083C243.456 17.8011 243.147 16.9908 243.088 16.0773C243.059 15.1344 243.206 14.2357 243.53 13.3812C243.884 12.5267 244.385 11.7753 245.033 11.1271C245.711 10.4494 246.477 10.0221 247.331 9.8453C248.569 9.55065 249.821 9.52118 251.088 9.75691C252.385 9.99263 253.593 10.4052 254.712 10.9945C255.243 11.3775 255.552 11.8195 255.641 12.3204C255.729 12.7919 255.655 13.2044 255.42 13.558C255.213 13.9116 254.874 14.1621 254.403 14.3094C253.961 14.4567 253.445 14.3831 252.856 14.0884C252.149 13.7053 251.397 13.4549 250.602 13.337C249.836 13.2192 249.055 13.2192 248.259 13.337C248.171 13.3959 248.068 13.4401 247.95 13.4696C247.862 13.4991 247.773 13.5433 247.685 13.6022C247.361 13.9558 247.125 14.3094 246.978 14.663C246.83 14.9871 246.771 15.3996 246.801 15.9006C246.83 16.0184 246.904 16.1952 247.022 16.4309C247.11 16.5488 247.199 16.6519 247.287 16.7403C247.375 16.8287 247.464 16.9319 247.552 17.0497C248.259 17.4328 249.025 17.7422 249.85 17.9779C250.705 18.1842 251.53 18.4346 252.326 18.7293C253.121 18.9945 253.858 19.3628 254.536 19.8343C255.213 20.2762 255.744 20.9392 256.127 21.8232C256.834 23.5028 256.937 25.0497 256.436 26.4641C255.965 27.8785 254.992 29.0718 253.519 30.0442C253.136 30.2799 252.709 30.4715 252.237 30.6188C251.766 30.7956 251.324 30.884 250.911 30.884C249.32 30.884 247.758 30.5304 246.226 29.8232C244.694 29.0866 243.456 28.07 242.513 26.7735ZM283.013 28.674C282.984 29.3517 282.778 29.8527 282.395 30.1768C282.041 30.5304 281.643 30.7072 281.201 30.7072C280.789 30.7072 280.406 30.5451 280.052 30.221C279.699 29.9263 279.478 29.4549 279.389 28.8066V16.2541H278.461C277.813 16.1657 277.327 15.9448 277.002 15.5912C276.708 15.2376 276.56 14.8545 276.56 14.442C276.56 14.0295 276.722 13.6317 277.047 13.2486C277.4 12.8361 277.916 12.6298 278.594 12.6298H279.389V7.67956C279.389 6.64825 279.551 5.69061 279.875 4.80663C280.199 3.92265 280.641 3.17127 281.201 2.55249C281.791 1.90424 282.483 1.40332 283.279 1.04973C284.074 0.696134 284.958 0.519338 285.931 0.519338C286.343 0.519338 286.874 0.593003 287.522 0.740333C288.199 0.858197 288.848 1.04973 289.467 1.31492C290.085 1.58011 290.616 1.91897 291.058 2.33149C291.529 2.71455 291.765 3.17127 291.765 3.70166C291.765 4.17311 291.603 4.5709 291.279 4.89503C290.955 5.21915 290.542 5.38122 290.041 5.38122C289.746 5.38122 289.437 5.32228 289.113 5.20442C288.789 5.05709 288.45 4.90976 288.096 4.76243C287.743 4.6151 287.374 4.48251 286.991 4.36464C286.608 4.21731 286.24 4.14365 285.886 4.14365C285.12 4.14365 284.487 4.40884 283.986 4.93923C283.514 5.44015 283.19 6.25046 283.013 7.37017V12.5414C283.839 12.512 284.722 12.4972 285.665 12.4972C286.638 12.4678 287.551 12.4383 288.406 12.4088C288.966 12.5562 289.378 12.8066 289.643 13.1602C289.908 13.4843 290.041 13.8379 290.041 14.221C290.041 14.8103 289.791 15.2376 289.29 15.5028C288.789 15.768 288.17 15.9448 287.433 16.0331C286.697 16.1215 285.931 16.1657 285.135 16.1657C284.339 16.1363 283.632 16.1363 283.013 16.1657V28.674ZM291.471 19.1713C291.795 18.2284 292.193 17.3149 292.664 16.4309C293.136 15.5175 293.696 14.6924 294.344 13.9558C294.992 13.2192 295.729 12.5856 296.554 12.0552C297.408 11.5249 298.351 11.1418 299.383 10.9061C301.092 10.523 302.58 10.6556 303.847 11.3039C305.143 11.9521 306.175 12.8803 306.941 14.0884C307.707 15.2965 308.208 16.6814 308.443 18.2431C308.709 19.7753 308.65 21.2486 308.267 22.663C307.825 24.4015 307.044 26.0221 305.924 27.5249C304.804 29.0276 303.39 30.1179 301.681 30.7956C300.414 31.2965 299.191 31.4733 298.013 31.326C296.863 31.2081 295.817 30.8398 294.874 30.221C293.961 29.6022 293.18 28.7919 292.532 27.7901C291.884 26.7882 291.442 25.6538 291.206 24.3867C291.059 23.5912 291 22.8103 291.029 22.0442C291.088 21.2781 291.191 20.512 291.338 19.7459L291.471 19.1713ZM294.919 20.1878C294.801 20.8066 294.712 21.3812 294.653 21.9116C294.624 22.4125 294.653 22.9871 294.742 23.6354C294.83 24.4309 295.081 25.1529 295.493 25.8011C295.906 26.4199 296.407 26.9061 296.996 27.2597C297.585 27.5838 298.234 27.7459 298.941 27.7459C299.677 27.7164 300.414 27.4807 301.151 27.0387C302.123 26.4494 302.889 25.6832 303.449 24.7403C304.038 23.7974 304.48 22.7808 304.775 21.6906C305.011 20.8066 305.055 19.8637 304.908 18.8619C304.79 17.86 304.495 16.9761 304.024 16.2099C303.552 15.4438 302.919 14.8987 302.123 14.5746C301.327 14.221 300.385 14.2652 299.294 14.7072C298.116 15.2081 297.187 15.9595 296.51 16.9613C295.832 17.9632 295.302 19.0387 294.919 20.1878ZM313.135 14.6188C312.693 14.3831 312.369 14.1031 312.163 13.779C311.957 13.4549 311.853 13.1308 311.853 12.8066C311.853 12.3646 312.016 11.9816 312.34 11.6575C312.664 11.3039 313.106 11.1271 313.666 11.1271C314.078 11.1271 314.594 11.2744 315.213 11.5691C315.831 11.8637 316.318 12.1878 316.671 12.5414C317.585 11.7753 318.527 11.1418 319.5 10.6409C320.472 10.14 321.459 9.8895 322.461 9.8895C322.756 9.8895 323.183 9.96317 323.743 10.1105C324.303 10.2578 324.848 10.4788 325.378 10.7735C325.938 11.0681 326.424 11.4512 326.837 11.9227C327.249 12.3941 327.456 12.9392 327.456 13.558C327.456 14.0589 327.294 14.4715 326.969 14.7956C326.645 15.0902 326.248 15.2376 325.776 15.2376C325.452 15.2376 325.157 15.1492 324.892 14.9724C324.656 14.7661 324.406 14.5599 324.141 14.3536C323.905 14.1179 323.64 13.9116 323.345 13.7348C323.08 13.558 322.771 13.4696 322.417 13.4696C322.004 13.4696 321.548 13.6022 321.047 13.8674C320.575 14.1031 320.089 14.3978 319.588 14.7514C319.117 15.105 318.66 15.488 318.218 15.9006C317.776 16.3131 317.393 16.6814 317.069 17.0055V28.7624C317.039 29.4401 316.833 29.9411 316.45 30.2652C316.097 30.6188 315.699 30.7956 315.257 30.7956C314.844 30.7956 314.461 30.6335 314.108 30.3094C313.754 30.0147 313.533 29.5433 313.445 28.895V16.8287C313.445 16.7698 313.43 16.7109 313.4 16.6519C313.4 16.5635 313.4 16.4899 313.4 16.4309C313.4 16.372 313.4 16.3131 313.4 16.2541C313.43 16.1657 313.445 16.0921 313.445 16.0331V14.7514C313.327 14.6925 313.224 14.6483 313.135 14.6188ZM359.434 11.0829C359.669 10.6704 359.934 10.3757 360.229 10.1989C360.524 10.0221 360.833 9.9337 361.157 9.9337C361.658 9.9337 362.071 10.1252 362.395 10.5083C362.719 10.8913 362.881 11.4217 362.881 12.0994C362.262 14.4862 361.481 16.7993 360.539 19.0387C359.596 21.2781 358.564 23.4733 357.445 25.6243C356.325 27.7753 355.146 29.8969 353.909 31.989C352.671 34.1105 351.463 36.2468 350.284 38.3978C350.049 38.7219 349.783 38.9429 349.489 39.0608C349.194 39.2081 348.914 39.2818 348.649 39.2818C348.207 39.2818 347.824 39.1197 347.5 38.7956C347.176 38.4715 347.014 38.0147 347.014 37.4254C347.014 37.337 347.014 37.2339 347.014 37.116C347.014 37.0276 347.028 36.9245 347.058 36.8066C348.03 35.0092 349.032 33.2413 350.063 31.5028C351.095 29.7643 352.097 28.011 353.069 26.2431C351.89 25.3002 350.829 24.3425 349.887 23.3702C348.944 22.3683 348.089 21.3223 347.323 20.232C346.586 19.1123 345.938 17.919 345.378 16.6519C344.818 15.3554 344.332 13.9558 343.92 12.453C343.92 11.6869 344.067 11.1123 344.362 10.7293C344.686 10.3168 345.113 10.1105 345.643 10.1105C346.027 10.1105 346.38 10.2431 346.704 10.5083C347.058 10.744 347.308 11.1418 347.456 11.7017C347.78 12.9392 348.163 14.0884 348.605 15.1492C349.076 16.1805 349.607 17.1529 350.196 18.0663C350.815 18.9503 351.492 19.8048 352.229 20.6298C352.995 21.4254 353.835 22.2063 354.748 22.9724C355.721 21.0571 356.605 19.1271 357.4 17.1823C358.225 15.2376 358.903 13.2044 359.434 11.0829ZM364.713 19.1713C365.037 18.2284 365.435 17.3149 365.907 16.4309C366.378 15.5175 366.938 14.6924 367.586 13.9558C368.234 13.2192 368.971 12.5856 369.796 12.0552C370.651 11.5249 371.594 11.1418 372.625 10.9061C374.334 10.523 375.822 10.6556 377.089 11.3039C378.385 11.9521 379.417 12.8803 380.183 14.0884C380.949 15.2965 381.45 16.6814 381.686 18.2431C381.951 19.7753 381.892 21.2486 381.509 22.663C381.067 24.4015 380.286 26.0221 379.166 27.5249C378.047 29.0276 376.632 30.1179 374.923 30.7956C373.656 31.2965 372.433 31.4733 371.255 31.326C370.106 31.2081 369.059 30.8398 368.117 30.221C367.203 29.6022 366.422 28.7919 365.774 27.7901C365.126 26.7882 364.684 25.6538 364.448 24.3867C364.301 23.5912 364.242 22.8103 364.271 22.0442C364.33 21.2781 364.433 20.512 364.581 19.7459L364.713 19.1713ZM368.161 20.1878C368.043 20.8066 367.955 21.3812 367.896 21.9116C367.866 22.4125 367.896 22.9871 367.984 23.6354C368.072 24.4309 368.323 25.1529 368.735 25.8011C369.148 26.4199 369.649 26.9061 370.238 27.2597C370.827 27.5838 371.476 27.7459 372.183 27.7459C372.92 27.7164 373.656 27.4807 374.393 27.0387C375.365 26.4494 376.131 25.6832 376.691 24.7403C377.28 23.7974 377.722 22.7808 378.017 21.6906C378.253 20.8066 378.297 19.8637 378.15 18.8619C378.032 17.86 377.737 16.9761 377.266 16.2099C376.794 15.4438 376.161 14.8987 375.365 14.5746C374.57 14.221 373.627 14.2652 372.536 14.7072C371.358 15.2081 370.43 15.9595 369.752 16.9613C369.074 17.9632 368.544 19.0387 368.161 20.1878ZM403.489 26.9503C403.813 27.3628 403.975 27.8195 403.975 28.3204C403.975 28.8214 403.813 29.2339 403.489 29.558C403.164 29.8527 402.767 30 402.295 30C401.647 30 401.087 29.7053 400.616 29.116C400.144 28.4972 399.746 27.8048 399.422 27.0387C398.656 27.8637 397.757 28.5709 396.726 29.1602C395.695 29.7201 394.634 30 393.544 30C392.748 30 391.982 29.8674 391.246 29.6022C390.509 29.3076 389.816 28.9245 389.168 28.453C388.549 27.9521 387.99 27.3775 387.489 26.7293C387.017 26.081 386.664 25.4033 386.428 24.6961C386.192 23.93 386.03 23.0902 385.942 22.1768C385.853 21.2339 385.809 20.2615 385.809 19.2597C385.809 18.0516 385.839 16.8729 385.897 15.7238C385.956 14.5746 385.986 13.558 385.986 12.674C386.133 12.0847 386.369 11.6427 386.693 11.3481C387.017 11.0534 387.385 10.9061 387.798 10.9061C388.181 10.9061 388.535 11.0387 388.859 11.3039C389.212 11.5691 389.463 11.9816 389.61 12.5414C389.61 13.9263 389.581 15.267 389.522 16.5635C389.492 17.8306 389.478 19.186 389.478 20.6298C389.478 22.2799 389.831 23.6354 390.538 24.6961C391.246 25.7569 392.203 26.2873 393.411 26.2873C393.853 26.2873 394.295 26.1989 394.737 26.0221C395.179 25.8453 395.592 25.6096 395.975 25.3149C396.358 25.0203 396.711 24.6814 397.036 24.2983C397.36 23.9153 397.654 23.5322 397.92 23.1492C397.978 23.0902 398.052 23.046 398.141 23.0166C398.229 22.9576 398.303 22.8987 398.362 22.8398C398.185 21.3665 398.096 19.8785 398.096 18.3757C398.096 17.5212 398.096 16.6667 398.096 15.8122C398.126 14.9282 398.199 14.1326 398.317 13.4254C398.465 12.6888 398.686 12.0994 398.98 11.6575C399.304 11.186 399.746 10.9503 400.306 10.9503C400.748 10.9503 401.146 11.1271 401.5 11.4807C401.853 11.8048 402.03 12.291 402.03 12.9392C402.03 13.6169 401.971 14.442 401.853 15.4144C401.765 16.3867 401.721 17.4033 401.721 18.4641C401.721 19.2891 401.75 20.1142 401.809 20.9392C401.868 21.7643 401.956 22.5599 402.074 23.326C402.222 24.0626 402.398 24.7403 402.605 25.3591C402.84 25.9779 403.135 26.5083 403.489 26.9503ZM408.76 14.6188C408.318 14.3831 407.994 14.1031 407.788 13.779C407.582 13.4549 407.478 13.1308 407.478 12.8066C407.478 12.3646 407.641 11.9816 407.965 11.6575C408.289 11.3039 408.731 11.1271 409.291 11.1271C409.703 11.1271 410.219 11.2744 410.838 11.5691C411.456 11.8637 411.943 12.1878 412.296 12.5414C413.21 11.7753 414.152 11.1418 415.125 10.6409C416.097 10.14 417.084 9.8895 418.086 9.8895C418.381 9.8895 418.808 9.96317 419.368 10.1105C419.928 10.2578 420.473 10.4788 421.003 10.7735C421.563 11.0681 422.049 11.4512 422.462 11.9227C422.874 12.3941 423.081 12.9392 423.081 13.558C423.081 14.0589 422.919 14.4715 422.594 14.7956C422.27 15.0902 421.873 15.2376 421.401 15.2376C421.077 15.2376 420.782 15.1492 420.517 14.9724C420.281 14.7661 420.031 14.5599 419.766 14.3536C419.53 14.1179 419.265 13.9116 418.97 13.7348C418.705 13.558 418.396 13.4696 418.042 13.4696C417.629 13.4696 417.173 13.6022 416.672 13.8674C416.2 14.1031 415.714 14.3978 415.213 14.7514C414.742 15.105 414.285 15.488 413.843 15.9006C413.401 16.3131 413.018 16.6814 412.694 17.0055V28.7624C412.664 29.4401 412.458 29.9411 412.075 30.2652C411.722 30.6188 411.324 30.7956 410.882 30.7956C410.469 30.7956 410.086 30.6335 409.733 30.3094C409.379 30.0147 409.158 29.5433 409.07 28.895V16.8287C409.07 16.7698 409.055 16.7109 409.025 16.6519C409.025 16.5635 409.025 16.4899 409.025 16.4309C409.025 16.372 409.025 16.3131 409.025 16.2541C409.055 16.1657 409.07 16.0921 409.07 16.0331V14.7514C408.952 14.6925 408.849 14.6483 408.76 14.6188ZM447.545 28.674C447.515 29.3517 447.309 29.8527 446.926 30.1768C446.572 30.5304 446.175 30.7072 445.733 30.7072C445.32 30.7072 444.937 30.5451 444.583 30.221C444.23 29.9263 444.009 29.4549 443.92 28.8066V16.2541H442.992C442.344 16.1657 441.858 15.9448 441.534 15.5912C441.239 15.2376 441.092 14.8545 441.092 14.442C441.092 14.0295 441.254 13.6317 441.578 13.2486C441.931 12.8361 442.447 12.6298 443.125 12.6298H443.92V7.67956C443.92 6.64825 444.082 5.69061 444.407 4.80663C444.731 3.92265 445.173 3.17127 445.733 2.55249C446.322 1.90424 447.014 1.40332 447.81 1.04973C448.605 0.696134 449.489 0.519338 450.462 0.519338C450.874 0.519338 451.405 0.593003 452.053 0.740333C452.731 0.858197 453.379 1.04973 453.998 1.31492C454.617 1.58011 455.147 1.91897 455.589 2.33149C456.06 2.71455 456.296 3.17127 456.296 3.70166C456.296 4.17311 456.134 4.5709 455.81 4.89503C455.486 5.21915 455.073 5.38122 454.572 5.38122C454.278 5.38122 453.968 5.32228 453.644 5.20442C453.32 5.05709 452.981 4.90976 452.628 4.76243C452.274 4.6151 451.906 4.48251 451.523 4.36464C451.14 4.21731 450.771 4.14365 450.418 4.14365C449.652 4.14365 449.018 4.40884 448.517 4.93923C448.046 5.44015 447.722 6.25046 447.545 7.37017V12.5414C448.37 12.512 449.254 12.4972 450.197 12.4972C451.169 12.4678 452.082 12.4383 452.937 12.4088C453.497 12.5562 453.909 12.8066 454.175 13.1602C454.44 13.4843 454.572 13.8379 454.572 14.221C454.572 14.8103 454.322 15.2376 453.821 15.5028C453.32 15.768 452.701 15.9448 451.965 16.0331C451.228 16.1215 450.462 16.1657 449.666 16.1657C448.871 16.1363 448.164 16.1363 447.545 16.1657V28.674ZM474.168 28.0994C474.168 28.1289 474.153 28.1436 474.124 28.1436C474.301 28.5562 474.345 28.9392 474.256 29.2928C474.168 29.6464 473.991 29.9263 473.726 30.1326C473.49 30.3683 473.166 30.5157 472.754 30.5746C472.371 30.6335 471.943 30.5451 471.472 30.3094C471.207 30.0442 470.956 29.7643 470.721 29.4696C470.485 29.1455 470.279 28.8214 470.102 28.4972C469.512 28.9982 468.879 29.4696 468.201 29.9116C467.524 30.3241 466.846 30.5451 466.168 30.5746C464.989 30.6335 463.826 30.6483 462.676 30.6188C461.527 30.5893 460.437 30.2063 459.406 29.4696C458.551 28.8508 457.888 28.1142 457.417 27.2597C456.975 26.4052 456.68 25.5064 456.533 24.5635C456.415 23.5912 456.43 22.6041 456.577 21.6022C456.724 20.6004 456.975 19.6427 457.328 18.7293C457.476 18.3168 457.667 17.919 457.903 17.5359C458.139 17.1529 458.374 16.7551 458.61 16.3425C458.934 15.7532 459.303 15.2081 459.715 14.7072C460.128 14.1768 460.599 13.7201 461.129 13.337C461.512 13.0718 461.881 12.8066 462.234 12.5414C462.617 12.2762 463 12.0258 463.384 11.7901C463.649 11.6133 464.047 11.4365 464.577 11.2597C465.137 11.0534 465.726 10.8913 466.345 10.7735C466.993 10.6262 467.627 10.5525 468.245 10.5525C468.894 10.5525 469.439 10.6409 469.881 10.8177C470.293 10.7587 470.691 10.8619 471.074 11.1271C471.487 11.3923 471.796 11.8195 472.002 12.4088C472.002 14.4125 471.988 16.4309 471.958 18.4641C471.929 20.4972 472.061 22.5157 472.356 24.5193C472.385 24.7845 472.489 25.1087 472.665 25.4917C472.872 25.8453 473.078 26.1989 473.284 26.5525C473.52 26.9061 473.726 27.2302 473.903 27.5249C474.08 27.8195 474.168 28.011 474.168 28.0994ZM468.555 25.0497C468.614 25.0203 468.658 24.9908 468.687 24.9613C468.717 24.9319 468.761 24.9024 468.82 24.8729C468.437 23.105 468.245 21.2781 468.245 19.3923C468.275 17.477 468.304 15.7238 468.334 14.1326C468.069 14.1326 467.774 14.1621 467.45 14.221C467.126 14.2799 466.802 14.3683 466.477 14.4862C466.183 14.5746 465.903 14.663 465.638 14.7514C465.402 14.8398 465.225 14.9134 465.107 14.9724C464.223 15.3849 463.472 15.93 462.853 16.6077C462.234 17.256 461.719 17.9926 461.306 18.8177C460.923 19.6133 460.628 20.4678 460.422 21.3812C460.216 22.2652 460.113 23.1639 460.113 24.0773C460.172 24.3131 460.245 24.5488 460.334 24.7845C460.422 25.0203 460.496 25.256 460.555 25.4917C460.702 25.639 460.849 25.8011 460.997 25.9779C461.174 26.1547 461.35 26.3168 461.527 26.4641C461.792 26.582 462.058 26.6851 462.323 26.7735C462.588 26.8619 462.853 26.9503 463.118 27.0387C463.619 27.0387 464.105 27.0534 464.577 27.0829C465.048 27.1123 465.52 27.0534 465.991 26.9061C466.433 26.6114 466.861 26.3168 467.273 26.0221C467.715 25.7274 468.142 25.4033 468.555 25.0497ZM489.363 11.4807C489.657 10.9797 489.996 10.6556 490.379 10.5083C490.792 10.3315 491.175 10.302 491.529 10.4199C491.912 10.5083 492.221 10.744 492.457 11.1271C492.722 11.4807 492.84 11.9374 492.81 12.4972C492.398 14.0884 491.912 15.6501 491.352 17.1823C490.821 18.6851 490.291 20.2026 489.761 21.7348C489.26 23.1492 488.759 24.5488 488.258 25.9337C487.786 27.2891 487.256 28.6446 486.667 30C486.136 30.6483 485.547 30.9282 484.899 30.8398C484.25 30.7514 483.75 30.3389 483.396 29.6022C482.335 26.8029 481.245 24.0331 480.125 21.2928C479.035 18.5525 477.812 15.8564 476.457 13.2044C476.162 12.6151 476.088 12.0994 476.236 11.6575C476.383 11.186 476.634 10.8471 476.987 10.6409C477.341 10.4052 477.753 10.3315 478.225 10.4199C478.726 10.5083 479.168 10.8177 479.551 11.3481C480.582 13.4107 481.554 15.5028 482.468 17.6243C483.381 19.7459 484.265 21.8969 485.12 24.0773C485.326 23.5175 485.518 22.9576 485.694 22.3978C485.901 21.8379 486.107 21.2781 486.313 20.7182C486.843 19.186 487.374 17.6685 487.904 16.1657C488.435 14.6335 488.921 13.0718 489.363 11.4807ZM495.885 19.1713C496.209 18.2284 496.607 17.3149 497.079 16.4309C497.55 15.5175 498.11 14.6924 498.758 13.9558C499.406 13.2192 500.143 12.5856 500.968 12.0552C501.823 11.5249 502.765 11.1418 503.797 10.9061C505.506 10.523 506.994 10.6556 508.261 11.3039C509.557 11.9521 510.589 12.8803 511.355 14.0884C512.121 15.2965 512.622 16.6814 512.858 18.2431C513.123 19.7753 513.064 21.2486 512.681 22.663C512.239 24.4015 511.458 26.0221 510.338 27.5249C509.218 29.0276 507.804 30.1179 506.095 30.7956C504.828 31.2965 503.605 31.4733 502.427 31.326C501.277 31.2081 500.231 30.8398 499.288 30.221C498.375 29.6022 497.594 28.7919 496.946 27.7901C496.298 26.7882 495.856 25.6538 495.62 24.3867C495.473 23.5912 495.414 22.8103 495.443 22.0442C495.502 21.2781 495.605 20.512 495.753 19.7459L495.885 19.1713ZM499.333 20.1878C499.215 20.8066 499.126 21.3812 499.067 21.9116C499.038 22.4125 499.067 22.9871 499.156 23.6354C499.244 24.4309 499.495 25.1529 499.907 25.8011C500.32 26.4199 500.821 26.9061 501.41 27.2597C501.999 27.5838 502.648 27.7459 503.355 27.7459C504.091 27.7164 504.828 27.4807 505.565 27.0387C506.537 26.4494 507.303 25.6832 507.863 24.7403C508.452 23.7974 508.894 22.7808 509.189 21.6906C509.425 20.8066 509.469 19.8637 509.322 18.8619C509.204 17.86 508.909 16.9761 508.438 16.2099C507.966 15.4438 507.333 14.8987 506.537 14.5746C505.741 14.221 504.799 14.2652 503.708 14.7072C502.53 15.2081 501.602 15.9595 500.924 16.9613C500.246 17.9632 499.716 19.0387 499.333 20.1878ZM517.549 14.6188C517.107 14.3831 516.783 14.1031 516.577 13.779C516.371 13.4549 516.268 13.1308 516.268 12.8066C516.268 12.3646 516.43 11.9816 516.754 11.6575C517.078 11.3039 517.52 11.1271 518.08 11.1271C518.492 11.1271 519.008 11.2744 519.627 11.5691C520.245 11.8637 520.732 12.1878 521.085 12.5414C521.999 11.7753 522.942 11.1418 523.914 10.6409C524.886 10.14 525.873 9.8895 526.875 9.8895C527.17 9.8895 527.597 9.96317 528.157 10.1105C528.717 10.2578 529.262 10.4788 529.792 10.7735C530.352 11.0681 530.838 11.4512 531.251 11.9227C531.663 12.3941 531.87 12.9392 531.87 13.558C531.87 14.0589 531.708 14.4715 531.384 14.7956C531.059 15.0902 530.662 15.2376 530.19 15.2376C529.866 15.2376 529.571 15.1492 529.306 14.9724C529.07 14.7661 528.82 14.5599 528.555 14.3536C528.319 14.1179 528.054 13.9116 527.759 13.7348C527.494 13.558 527.185 13.4696 526.831 13.4696C526.419 13.4696 525.962 13.6022 525.461 13.8674C524.989 14.1031 524.503 14.3978 524.002 14.7514C523.531 15.105 523.074 15.488 522.632 15.9006C522.19 16.3131 521.807 16.6814 521.483 17.0055V28.7624C521.454 29.4401 521.247 29.9411 520.864 30.2652C520.511 30.6188 520.113 30.7956 519.671 30.7956C519.258 30.7956 518.875 30.6335 518.522 30.3094C518.168 30.0147 517.947 29.5433 517.859 28.895V16.8287C517.859 16.7698 517.844 16.7109 517.814 16.6519C517.814 16.5635 517.814 16.4899 517.814 16.4309C517.814 16.372 517.814 16.3131 517.814 16.2541C517.844 16.1657 517.859 16.0921 517.859 16.0331V14.7514C517.741 14.6925 517.638 14.6483 517.549 14.6188ZM539.419 28.5856C539.389 29.2634 539.183 29.7643 538.8 30.0884C538.447 30.442 538.049 30.6188 537.607 30.6188C537.194 30.6188 536.811 30.4567 536.458 30.1326C536.104 29.8379 535.883 29.3665 535.795 28.7182C535.765 25.9484 535.736 23.1197 535.706 20.232C535.706 17.3444 535.691 14.5157 535.662 11.7459C535.809 11.1565 536.045 10.7146 536.369 10.4199C536.693 10.1252 537.062 9.9779 537.474 9.9779C537.857 9.9779 538.211 10.1105 538.535 10.3757C538.889 10.6409 539.139 11.0534 539.286 11.6133C539.316 14.3831 539.33 17.2118 539.33 20.0994C539.36 22.9871 539.389 25.8158 539.419 28.5856ZM535.353 4.54144C535.353 3.89319 535.559 3.34807 535.971 2.90608C536.384 2.43462 536.885 2.1989 537.474 2.1989C538.063 2.1989 538.564 2.43462 538.977 2.90608C539.419 3.34807 539.64 3.89319 539.64 4.54144C539.64 5.16022 539.419 5.70534 538.977 6.1768C538.564 6.61879 538.063 6.83978 537.474 6.83978C536.885 6.83978 536.384 6.61879 535.971 6.1768C535.559 5.70534 535.353 5.16022 535.353 4.54144ZM544.986 14.442C544.338 14.3536 543.852 14.1326 543.528 13.779C543.233 13.4254 543.086 13.0424 543.086 12.6298C543.086 12.2173 543.248 11.8195 543.572 11.4365C543.926 11.0239 544.441 10.8177 545.119 10.8177H547.594V3.83425C547.742 3.24494 547.977 2.80295 548.301 2.50829C548.625 2.21363 548.994 2.0663 549.406 2.0663C549.789 2.0663 550.143 2.1989 550.467 2.46409C550.821 2.72928 551.071 3.14181 551.218 3.70166V10.8177H555.462C556.021 10.965 556.434 11.2155 556.699 11.5691C556.964 11.8932 557.097 12.2468 557.097 12.6298C557.097 13.0424 556.95 13.4107 556.655 13.7348C556.36 14.0589 555.918 14.2947 555.329 14.442H551.218C551.189 16.7109 551.189 19.0534 551.218 21.4696C551.248 23.8564 551.263 26.1842 551.263 28.453C551.263 29.1308 551.056 29.6464 550.644 30C550.261 30.3241 549.863 30.4862 549.451 30.4862C549.038 30.4862 548.655 30.3241 548.301 30C547.948 29.7053 547.727 29.2339 547.638 28.5856C547.638 26.2873 547.624 23.93 547.594 21.5138C547.594 19.0976 547.594 16.7403 547.594 14.442H544.986ZM573.519 24.8287C574.137 24.593 574.668 24.5635 575.11 24.7403C575.552 24.9171 575.861 25.1971 576.038 25.5801C576.244 25.9632 576.274 26.3904 576.126 26.8619C576.008 27.3333 575.67 27.7311 575.11 28.0552C574.137 28.6151 573.091 29.1308 571.972 29.6022C570.852 30.0737 569.717 30.3978 568.568 30.5746C567.419 30.7514 566.285 30.7366 565.165 30.5304C564.045 30.3536 562.97 29.9116 561.938 29.2044C560.701 28.3499 559.758 27.2007 559.11 25.7569C558.462 24.2836 558.123 22.7661 558.093 21.2044C558.064 19.6133 558.344 18.0958 558.933 16.6519C559.552 15.1786 560.509 14 561.806 13.116C563.161 12.2026 564.635 11.5249 566.226 11.0829C567.817 10.6114 569.423 10.5525 571.043 10.9061C571.839 11.0829 572.561 11.4659 573.209 12.0552C573.857 12.6151 574.373 13.2781 574.756 14.0442C575.169 14.7808 575.39 15.5764 575.419 16.4309C575.449 17.256 575.242 18.0368 574.8 18.7735C574.299 19.5985 573.578 20.3057 572.635 20.895C571.692 21.4549 570.66 21.9411 569.541 22.3536C568.45 22.7366 567.345 23.0608 566.226 23.326C565.136 23.5912 564.178 23.8416 563.353 24.0773C562.999 24.1657 562.66 24.1805 562.336 24.1215C562.778 25.0645 563.427 25.8453 564.281 26.4641C565.165 27.0534 566.255 27.3039 567.552 27.2155C568.583 27.1565 569.614 26.8766 570.646 26.3757C571.706 25.8453 572.664 25.3297 573.519 24.8287ZM564.9 15.4144C563.81 15.9742 562.999 16.7698 562.469 17.8011C561.938 18.8029 561.673 19.8637 561.673 20.9834C561.88 20.8361 562.101 20.7182 562.336 20.6298C562.867 20.4825 563.397 20.3352 563.927 20.1878C564.487 20.0111 565.047 19.849 565.607 19.7017C565.961 19.6133 566.432 19.4807 567.021 19.3039C567.64 19.1271 568.274 18.9208 568.922 18.6851C569.57 18.4494 570.159 18.1842 570.69 17.8895C571.22 17.5654 571.574 17.2118 571.751 16.8287C571.81 15.8564 571.574 15.1934 571.043 14.8398C570.513 14.4862 569.88 14.3094 569.143 14.3094C568.406 14.3094 567.64 14.442 566.845 14.7072C566.049 14.9429 565.401 15.1786 564.9 15.4144ZM596.012 38.7072C595.629 38.3241 595.394 37.9116 595.305 37.4696C595.246 37.0276 595.305 36.6446 595.482 36.3204C595.688 35.9963 595.998 35.7459 596.41 35.5691C596.823 35.4217 597.309 35.4365 597.869 35.6133C598.252 35.8195 598.576 35.9963 598.841 36.1436C599.106 36.3204 599.372 36.4678 599.637 36.5856C599.902 36.733 600.167 36.8508 600.432 36.9392C600.727 37.0276 601.066 37.116 601.449 37.2044C601.979 37.3223 602.554 37.3812 603.173 37.3812C603.791 37.3812 604.396 37.3076 604.985 37.1602C605.604 37.0129 606.163 36.7772 606.664 36.453C607.195 36.1289 607.607 35.7017 607.902 35.1713C608.108 34.8177 608.226 34.3904 608.256 33.8895C608.285 33.3886 608.3 32.9319 608.3 32.5193V29.6464C607.828 29.8821 607.357 30.0737 606.885 30.221C606.414 30.3683 605.928 30.5157 605.427 30.663C604.72 30.8103 604.012 30.8987 603.305 30.9282C602.598 30.9871 601.891 30.9429 601.184 30.7956C599.652 30.5304 598.37 29.9116 597.338 28.9392C596.307 27.9669 595.526 26.8177 594.996 25.4917C594.495 24.1657 594.23 22.7514 594.2 21.2486C594.2 19.7459 594.451 18.3315 594.952 17.0055C595.364 15.9448 595.968 14.9724 596.764 14.0884C597.559 13.2044 598.458 12.512 599.46 12.011C600.462 11.4807 601.537 11.1713 602.687 11.0829C603.836 10.9945 604.955 11.2007 606.046 11.7017C606.9 12.1142 607.71 12.5709 608.477 13.0718C608.653 12.6593 608.904 12.3646 609.228 12.1878C609.552 11.9816 609.891 11.9079 610.245 11.9669C610.598 11.9963 610.922 12.1436 611.217 12.4088C611.541 12.674 611.777 13.0571 611.924 13.558V32.3867C611.924 33.9779 611.688 35.3333 611.217 36.453C610.745 37.6022 609.832 38.6188 608.477 39.5028C607.917 39.8564 607.313 40.1657 606.664 40.4309C606.016 40.6961 605.368 40.8582 604.72 40.9171C603.305 41.0939 601.95 41.035 600.653 40.7403C599.71 40.5341 598.915 40.2541 598.267 39.9006C597.618 39.5764 596.867 39.1786 596.012 38.7072ZM607.99 25.5359C608.108 25.477 608.211 25.4475 608.3 25.4475V17.4917C608.27 17.4917 608.256 17.477 608.256 17.4475C607.666 16.8877 606.989 16.3573 606.222 15.8564C605.486 15.3554 604.705 14.9871 603.88 14.7514C603.526 14.7808 603.173 14.8103 602.819 14.8398C602.466 14.8692 602.112 14.8987 601.758 14.9282C601.523 15.046 601.272 15.1639 601.007 15.2818C600.771 15.3996 600.535 15.5175 600.3 15.6354C598.826 17.1381 598.016 18.6704 597.869 20.232C597.751 21.7937 598.119 23.5175 598.974 25.4033C599.121 25.5801 599.283 25.7569 599.46 25.9337C599.637 26.1105 599.799 26.2873 599.946 26.4641C602.775 27.8785 605.456 27.5691 607.99 25.5359ZM633.543 28.0994C633.543 28.1289 633.528 28.1436 633.499 28.1436C633.676 28.5562 633.72 28.9392 633.631 29.2928C633.543 29.6464 633.366 29.9263 633.101 30.1326C632.865 30.3683 632.541 30.5157 632.129 30.5746C631.746 30.6335 631.318 30.5451 630.847 30.3094C630.582 30.0442 630.331 29.7643 630.096 29.4696C629.86 29.1455 629.654 28.8214 629.477 28.4972C628.887 28.9982 628.254 29.4696 627.576 29.9116C626.899 30.3241 626.221 30.5451 625.543 30.5746C624.364 30.6335 623.201 30.6483 622.051 30.6188C620.902 30.5893 619.812 30.2063 618.781 29.4696C617.926 28.8508 617.263 28.1142 616.792 27.2597C616.35 26.4052 616.055 25.5064 615.908 24.5635C615.79 23.5912 615.805 22.6041 615.952 21.6022C616.099 20.6004 616.35 19.6427 616.703 18.7293C616.851 18.3168 617.042 17.919 617.278 17.5359C617.514 17.1529 617.749 16.7551 617.985 16.3425C618.309 15.7532 618.678 15.2081 619.09 14.7072C619.503 14.1768 619.974 13.7201 620.504 13.337C620.887 13.0718 621.256 12.8066 621.609 12.5414C621.992 12.2762 622.375 12.0258 622.759 11.7901C623.024 11.6133 623.422 11.4365 623.952 11.2597C624.512 11.0534 625.101 10.8913 625.72 10.7735C626.368 10.6262 627.002 10.5525 627.62 10.5525C628.269 10.5525 628.814 10.6409 629.256 10.8177C629.668 10.7587 630.066 10.8619 630.449 11.1271C630.862 11.3923 631.171 11.8195 631.377 12.4088C631.377 14.4125 631.363 16.4309 631.333 18.4641C631.304 20.4972 631.436 22.5157 631.731 24.5193C631.76 24.7845 631.864 25.1087 632.04 25.4917C632.247 25.8453 632.453 26.1989 632.659 26.5525C632.895 26.9061 633.101 27.2302 633.278 27.5249C633.455 27.8195 633.543 28.011 633.543 28.0994ZM627.93 25.0497C627.989 25.0203 628.033 24.9908 628.062 24.9613C628.092 24.9319 628.136 24.9024 628.195 24.8729C627.812 23.105 627.62 21.2781 627.62 19.3923C627.65 17.477 627.679 15.7238 627.709 14.1326C627.444 14.1326 627.149 14.1621 626.825 14.221C626.501 14.2799 626.177 14.3683 625.852 14.4862C625.558 14.5746 625.278 14.663 625.013 14.7514C624.777 14.8398 624.6 14.9134 624.482 14.9724C623.598 15.3849 622.847 15.93 622.228 16.6077C621.609 17.256 621.094 17.9926 620.681 18.8177C620.298 19.6133 620.003 20.4678 619.797 21.3812C619.591 22.2652 619.488 23.1639 619.488 24.0773C619.547 24.3131 619.62 24.5488 619.709 24.7845C619.797 25.0203 619.871 25.256 619.93 25.4917C620.077 25.639 620.224 25.8011 620.372 25.9779C620.549 26.1547 620.725 26.3168 620.902 26.4641C621.167 26.582 621.433 26.6851 621.698 26.7735C621.963 26.8619 622.228 26.9503 622.493 27.0387C622.994 27.0387 623.48 27.0534 623.952 27.0829C624.423 27.1123 624.895 27.0534 625.366 26.9061C625.808 26.6114 626.236 26.3168 626.648 26.0221C627.09 25.7274 627.517 25.4033 627.93 25.0497ZM648.226 17.5801C648.226 17.4917 648.241 17.4328 648.27 17.4033C648.241 17.3149 648.226 17.1971 648.226 17.0497V16.5635C647.872 15.6501 647.313 14.9871 646.546 14.5746C645.78 14.1621 644.941 13.9411 644.027 13.9116C643.379 14.1179 642.76 14.4273 642.171 14.8398L641.243 16.0331C641.154 16.151 641.066 16.2541 640.977 16.3425C640.889 16.4015 640.801 16.4604 640.712 16.5193V28.674C640.683 29.3517 640.476 29.8527 640.093 30.1768C639.74 30.5304 639.342 30.7072 638.9 30.7072C638.487 30.7072 638.104 30.5451 637.751 30.221C637.397 29.9263 637.176 29.4549 637.088 28.8066V11.7017C637.235 11.1123 637.471 10.6851 637.795 10.4199C638.119 10.1252 638.487 9.9779 638.9 9.9779C639.254 9.9779 639.592 10.1105 639.917 10.3757C640.27 10.6114 640.521 10.9945 640.668 11.5249C641.139 11.2007 641.699 10.9061 642.348 10.6409C643.025 10.3462 643.732 10.1989 644.469 10.1989C645.53 10.1989 646.605 10.4788 647.696 11.0387C648.815 11.5691 649.714 12.2468 650.392 13.0718C650.716 12.7477 651.055 12.4236 651.408 12.0994C651.791 11.7459 652.189 11.4365 652.602 11.1713C653.014 10.8766 653.441 10.6409 653.883 10.4641C654.325 10.2578 654.767 10.1547 655.209 10.1547C656.123 10.1547 657.022 10.3168 657.906 10.6409C658.789 10.9355 659.57 11.3628 660.248 11.9227C660.955 12.453 661.515 13.0866 661.928 13.8232C662.37 14.5304 662.591 15.2818 662.591 16.0773C662.591 16.1363 662.576 16.1805 662.546 16.2099C662.546 16.2394 662.546 16.2836 662.546 16.3425C662.576 16.372 662.591 16.4015 662.591 16.4309C662.591 16.4604 662.605 16.4899 662.635 16.5193V28.4972C662.605 29.175 662.399 29.6759 662.016 30C661.662 30.3536 661.265 30.5304 660.823 30.5304C660.41 30.5304 660.027 30.3683 659.673 30.0442C659.32 29.7495 659.099 29.2781 659.01 28.6298V16.5193C658.686 15.488 658.185 14.7956 657.508 14.442C656.83 14.0589 656.152 13.8674 655.475 13.8674C654.708 13.8674 654.016 14.0589 653.397 14.442C652.778 14.825 652.263 15.5322 651.85 16.5635V28.453C651.821 29.1308 651.615 29.6464 651.231 30C650.878 30.3241 650.48 30.4862 650.038 30.4862C649.626 30.4862 649.243 30.3241 648.889 30C648.535 29.7053 648.314 29.2339 648.226 28.5856V17.5801ZM682.894 24.8287C683.512 24.593 684.043 24.5635 684.485 24.7403C684.927 24.9171 685.236 25.1971 685.413 25.5801C685.619 25.9632 685.649 26.3904 685.501 26.8619C685.383 27.3333 685.045 27.7311 684.485 28.0552C683.512 28.6151 682.466 29.1308 681.347 29.6022C680.227 30.0737 679.092 30.3978 677.943 30.5746C676.794 30.7514 675.66 30.7366 674.54 30.5304C673.42 30.3536 672.345 29.9116 671.313 29.2044C670.076 28.3499 669.133 27.2007 668.485 25.7569C667.837 24.2836 667.498 22.7661 667.468 21.2044C667.439 19.6133 667.719 18.0958 668.308 16.6519C668.927 15.1786 669.884 14 671.181 13.116C672.536 12.2026 674.01 11.5249 675.601 11.0829C677.192 10.6114 678.798 10.5525 680.418 10.9061C681.214 11.0829 681.936 11.4659 682.584 12.0552C683.232 12.6151 683.748 13.2781 684.131 14.0442C684.544 14.7808 684.765 15.5764 684.794 16.4309C684.824 17.256 684.617 18.0368 684.175 18.7735C683.674 19.5985 682.953 20.3057 682.01 20.895C681.067 21.4549 680.035 21.9411 678.916 22.3536C677.825 22.7366 676.72 23.0608 675.601 23.326C674.511 23.5912 673.553 23.8416 672.728 24.0773C672.374 24.1657 672.035 24.1805 671.711 24.1215C672.153 25.0645 672.802 25.8453 673.656 26.4641C674.54 27.0534 675.63 27.3039 676.927 27.2155C677.958 27.1565 678.989 26.8766 680.021 26.3757C681.081 25.8453 682.039 25.3297 682.894 24.8287ZM674.275 15.4144C673.185 15.9742 672.374 16.7698 671.844 17.8011C671.313 18.8029 671.048 19.8637 671.048 20.9834C671.255 20.8361 671.476 20.7182 671.711 20.6298C672.242 20.4825 672.772 20.3352 673.302 20.1878C673.862 20.0111 674.422 19.849 674.982 19.7017C675.336 19.6133 675.807 19.4807 676.396 19.3039C677.015 19.1271 677.649 18.9208 678.297 18.6851C678.945 18.4494 679.534 18.1842 680.065 17.8895C680.595 17.5654 680.949 17.2118 681.126 16.8287C681.185 15.8564 680.949 15.1934 680.418 14.8398C679.888 14.4862 679.255 14.3094 678.518 14.3094C677.781 14.3094 677.015 14.442 676.22 14.7072C675.424 14.9429 674.776 15.1786 674.275 15.4144Z" fill="white"/>
</svg>
