<svg width="452" height="46" viewBox="0 0 452 46" fill="none" xmlns="http://www.w3.org/2000/svg">
<path d="M45.7801 40.3912C45.6564 41.2987 45.3263 42.0619 44.7901 42.6807C44.2538 43.3407 43.635 43.7945 42.9337 44.042C42.2324 44.2895 41.5105 44.2895 40.768 44.042C40.0254 43.8357 39.4066 43.2994 38.9116 42.4331C38.4991 41.7319 38.2516 41.0099 38.1691 40.2674C38.1278 39.4836 38.0659 38.6792 37.9834 37.8541C37.9009 36.9466 37.7978 36.1628 37.674 35.5028C37.5915 34.8015 37.4884 33.9971 37.3646 33.0895C36.9934 30.6144 36.5808 28.1805 36.1271 25.7878C35.6733 23.354 35.1576 20.9201 34.5801 18.4862C33.7551 20.5488 32.9713 22.5908 32.2287 24.6122C31.4862 26.6335 30.7436 28.6755 30.0011 30.7381C29.4236 32.2645 28.846 33.8114 28.2685 35.379C27.7322 36.9053 27.0928 38.3904 26.3503 39.8343C26.1028 40.3293 25.6902 40.7418 25.1127 41.0718C24.5352 41.3606 23.9164 41.5256 23.2564 41.5669C22.5963 41.6081 21.9775 41.5256 21.4 41.3193C20.8225 41.0718 20.3893 40.6799 20.1006 40.1436C18.3267 36.7197 16.5735 33.3164 14.8409 29.9337C13.1083 26.551 11.3757 23.1477 9.64309 19.7238C9.43683 21.8276 9.2512 23.9521 9.08619 26.0972C8.92118 28.2011 8.73554 30.305 8.52928 32.4088C8.48803 33.0689 8.44678 33.8733 8.40552 34.8221C8.36427 35.7709 8.28177 36.7403 8.15801 37.7304C8.07551 38.6792 7.95175 39.6074 7.78674 40.5149C7.66298 41.3812 7.4361 42.0619 7.10608 42.5569C6.61105 43.382 5.95101 43.9182 5.12597 44.1657C4.34217 44.4133 3.55838 44.4339 2.77459 44.2276C2.03204 44.0214 1.39263 43.5882 0.856353 42.9282C0.361326 42.3094 0.134438 41.505 0.175691 40.5149C0.258195 38.8236 0.402578 37.1529 0.60884 35.5028C0.815101 33.8527 1.00074 32.182 1.16575 30.4906C1.49576 26.8192 1.82578 23.1683 2.1558 19.5381C2.52707 15.9079 2.87772 12.2365 3.20773 8.52376C3.29024 7.4512 3.4965 6.46114 3.82652 5.55359C4.19779 4.64604 4.96096 4.00663 6.11602 3.63536C6.5698 3.47035 7.0442 3.40847 7.53923 3.44973C8.03425 3.49098 8.48803 3.63536 8.90055 3.88288C9.8081 4.46041 10.5094 5.26483 11.0044 6.29614C11.5407 7.28619 12.0357 8.23499 12.4895 9.14254C13.2733 10.6276 14.0365 12.1333 14.779 13.6597C15.5215 15.1448 16.2641 16.6298 17.0066 18.1149C17.9142 20.0125 18.8217 21.8895 19.7293 23.7459C20.6781 25.561 21.6475 27.3967 22.6376 29.253C22.8851 28.6343 23.112 28.0155 23.3182 27.3967C23.5657 26.7779 23.8133 26.1591 24.0608 25.5403C24.5145 24.4678 24.9271 23.3952 25.2983 22.3227C25.7109 21.2088 26.1234 20.1157 26.5359 19.0431C27.1134 17.6405 27.6497 16.2586 28.1447 14.8972C28.681 13.5359 29.1967 12.154 29.6917 10.7514C30.1042 9.72008 30.4961 8.60626 30.8674 7.40995C31.2387 6.21363 31.8368 5.20295 32.6619 4.3779C33.2394 3.75912 33.8582 3.38785 34.5182 3.26409C35.2195 3.14033 35.8589 3.20221 36.4365 3.44973C37.0552 3.65599 37.5915 4.02726 38.0453 4.56354C38.5403 5.09982 38.891 5.7186 39.0972 6.41989C39.3447 7.36869 39.6335 8.44125 39.9635 9.63757C40.2936 10.8339 40.5823 11.9064 40.8298 12.8553C41.2836 14.5878 41.6961 16.2998 42.0674 17.9912C42.4387 19.6413 42.7893 21.3326 43.1193 23.0652C43.6969 25.9116 44.1919 28.7374 44.6044 31.5425C45.0582 34.3064 45.4501 37.1116 45.7801 39.958V40.3912ZM49.842 27.2111C50.1307 26.0147 50.5226 24.839 51.0177 23.684C51.5539 22.5289 52.1934 21.4357 52.9359 20.4044C53.6784 19.3319 54.5035 18.3624 55.411 17.4961C56.3598 16.6298 57.3705 15.9285 58.4431 15.3923C60.3407 14.4022 62.2383 13.9072 64.1359 13.9072C66.0748 13.8659 67.8692 14.2372 69.5193 15.021C71.1694 15.8048 72.572 16.9805 73.7271 18.5481C74.8821 20.0744 75.6453 21.9101 76.0166 24.0553C76.2228 25.4578 76.3259 26.7985 76.3259 28.0773C76.3672 29.3149 76.2434 30.6144 75.9547 31.9757C75.5422 33.9145 74.6965 35.8534 73.4177 37.7923C72.1801 39.6899 70.6744 41.2781 68.9005 42.5569C67.1679 43.877 65.2497 44.7433 63.1458 45.1558C61.0832 45.5683 59 45.2383 56.8961 44.1657C55.9473 43.712 55.081 43.1757 54.2972 42.5569C53.5547 41.9794 52.874 41.2781 52.2552 40.453C51.5539 39.5455 50.997 38.5967 50.5845 37.6066C50.2132 36.6166 49.9039 35.5853 49.6563 34.5127C49.3676 33.3576 49.2644 32.2026 49.3469 31.0475C49.4294 29.8512 49.5738 28.6961 49.7801 27.5823L49.842 27.2111ZM57.2674 28.5105C57.1436 29.1705 57.0405 29.8306 56.958 30.4906C56.8755 31.1094 56.8755 31.7488 56.958 32.4088C57.0818 33.3576 57.3293 34.2239 57.7005 35.0077C58.1131 35.7915 58.6287 36.4103 59.2475 36.8641C59.9075 37.3179 60.6501 37.5654 61.4751 37.6066C62.3002 37.6066 63.1871 37.3385 64.1359 36.8022C65.3322 36.1009 66.3635 35.0284 67.2298 33.5845C68.0961 32.0994 68.6324 30.5731 68.8387 29.0055C69.0449 27.3967 68.8799 25.891 68.3436 24.4884C67.8073 23.0446 66.7554 22.0133 65.1878 21.3945C64.1565 21.3945 63.2077 21.6007 62.3414 22.0133C61.4751 22.3845 60.712 22.9002 60.0519 23.5602C59.4331 24.179 58.8762 24.9215 58.3812 25.7878C57.9274 26.6541 57.5562 27.5617 57.2674 28.5105ZM92.1877 43.6088C90.9914 43.6501 89.8364 43.5676 88.7225 43.3613C87.65 43.1551 86.5774 42.8044 85.5049 42.3094C84.9686 42.5982 84.4323 42.7425 83.896 42.7425C83.401 42.7425 82.9266 42.66 82.4728 42.495C82.0603 42.33 81.689 42.1444 81.359 41.9381C81.0702 41.6906 80.864 41.505 80.7402 41.3812C80.2865 40.7212 80.0183 39.9786 79.9358 39.1536C79.8533 38.3285 80.1214 37.5448 80.7402 36.8022V4.99669C80.7402 4.04788 81.0702 3.26409 81.7303 2.6453C82.3903 1.98527 83.1535 1.57275 84.0198 1.40774C84.8861 1.24273 85.7111 1.38711 86.4949 1.84089C87.32 2.29466 87.8769 3.11971 88.1656 4.31602C88.3307 5.05857 88.4544 5.80111 88.5369 6.54365C88.6607 7.24494 88.7225 8.06998 88.7225 9.01878C88.7638 9.96759 88.7638 11.0608 88.7225 12.2983C88.7225 13.5359 88.6813 15.0622 88.5988 16.8773C88.9701 16.6711 89.3413 16.4855 89.7126 16.3204C90.1251 16.1142 90.5376 15.9079 90.9502 15.7017C92.1052 15.1654 93.3428 14.8354 94.6629 14.7116C95.983 14.5878 97.2618 14.6704 98.4993 14.9591C99.7782 15.2066 100.954 15.7017 102.026 16.4442C103.14 17.1455 104.048 18.0737 104.749 19.2287C105.739 20.8788 106.399 22.8177 106.729 25.0453C107.1 27.2317 107.1 29.418 106.729 31.6044C106.399 33.7495 105.677 35.7503 104.563 37.6066C103.491 39.463 101.965 40.8449 99.9844 41.7525C98.7469 42.33 97.468 42.7632 96.148 43.0519C94.8691 43.382 93.5491 43.5676 92.1877 43.6088ZM88.2894 27.768V35.1934C88.3719 35.2759 88.4544 35.3378 88.5369 35.379C88.6194 35.4203 88.7019 35.4821 88.7844 35.5646C92.4971 36.8022 95.7148 35.9565 98.4375 33.0276C99.0562 31.3775 99.345 29.8306 99.3038 28.3867C99.3038 26.9017 99.0356 25.3134 98.4993 23.6221C98.2931 23.1271 97.9424 22.8177 97.4474 22.6939C96.9936 22.5289 96.5811 22.3433 96.2098 22.137C95.5498 22.0133 94.8279 22.137 94.0441 22.5083C93.3016 22.8796 92.5796 23.354 91.8783 23.9315C91.1771 24.4678 90.5376 25.0659 89.9601 25.726C89.3826 26.386 88.9288 26.9429 88.5988 27.3967L88.2894 27.768ZM120.333 40.2674C120.251 41.0924 119.962 41.8144 119.467 42.4331C118.972 43.0932 118.395 43.5676 117.735 43.8564C117.116 44.1451 116.435 44.207 115.693 44.042C114.95 43.877 114.29 43.4232 113.712 42.6807C113.382 42.2681 113.135 41.8144 112.97 41.3193C112.846 40.7831 112.764 40.2468 112.722 39.7105C112.681 39.133 112.661 38.5761 112.661 38.0398C112.702 37.4622 112.722 36.9466 112.722 36.4928C112.681 34.0589 112.661 31.6457 112.661 29.253C112.702 26.8604 112.702 24.4471 112.661 22.0133C112.661 21.0232 112.599 20.0332 112.475 19.0431C112.351 18.0118 112.413 17.0011 112.661 16.0111C112.867 15.2685 113.217 14.6291 113.712 14.0928C114.249 13.5565 114.826 13.1853 115.445 12.979C116.105 12.7727 116.765 12.7521 117.425 12.9171C118.126 13.0821 118.725 13.5153 119.22 14.2166C119.88 15.0416 120.21 15.8667 120.21 16.6917C120.21 17.4755 120.21 18.4449 120.21 19.6C120.21 21.0026 120.21 22.4052 120.21 23.8077C120.21 25.2103 120.23 26.5923 120.272 27.9536C120.313 29.9337 120.333 31.9138 120.333 33.8939C120.333 35.874 120.333 37.8541 120.333 39.8343V40.2674ZM112.165 5.05856C112.33 3.53223 112.846 2.41842 113.712 1.71713C114.62 0.974588 115.569 0.623944 116.559 0.665195C117.549 0.665195 118.456 1.03647 119.281 1.77901C120.148 2.52155 120.602 3.57348 120.643 4.93481C120.725 6.33739 120.354 7.43057 119.529 8.21437C118.745 8.95691 117.838 9.39006 116.806 9.51381C115.775 9.59632 114.806 9.30755 113.898 8.64751C112.991 7.98748 112.434 6.93555 112.227 5.49171L112.165 5.05856ZM136.341 38.1635C136.795 38.5761 137.166 39.1123 137.455 39.7724C137.785 40.3912 137.95 41.0306 137.95 41.6906C137.991 42.3094 137.847 42.8869 137.517 43.4232C137.228 44.0007 136.692 44.4339 135.908 44.7227C135.289 44.9289 134.608 44.9702 133.866 44.8464C133.123 44.7227 132.381 44.4751 131.638 44.1039C130.937 43.7326 130.298 43.2788 129.72 42.7425C129.184 42.2475 128.792 41.6906 128.544 41.0718C128.462 40.8656 128.4 40.6387 128.359 40.3912C128.317 40.1024 128.297 39.8549 128.297 39.6486V5.30608C128.297 4.35728 128.647 3.55286 129.349 2.89282C130.091 2.23278 130.896 1.84089 131.762 1.71713C132.174 1.67588 132.608 1.73776 133.061 1.90276C133.556 2.06777 134.01 2.31529 134.423 2.6453C134.835 2.93407 135.165 3.28472 135.413 3.69724C135.702 4.10976 135.846 4.54291 135.846 4.99669C135.846 6.06925 135.846 7.49245 135.846 9.2663C135.846 11.0401 135.846 12.979 135.846 15.0829C135.887 17.1867 135.908 19.3731 135.908 21.642C135.908 23.8696 135.887 26.0147 135.846 28.0773C135.846 30.14 135.846 32.0376 135.846 33.7702C135.846 35.4615 135.825 36.8228 135.784 37.8541L136.341 38.1635ZM164.451 33.7083C165.441 33.4608 166.307 33.4608 167.05 33.7083C167.833 33.9145 168.432 34.2858 168.844 34.8221C169.257 35.3584 169.442 36.0184 169.401 36.8022C169.36 37.586 169.009 38.411 168.349 39.2773C167.813 39.9786 167.07 40.5768 166.121 41.0718C165.173 41.5669 164.286 41.9587 163.461 42.2475C161.439 42.9901 159.521 43.5057 157.706 43.7945C155.891 44.0832 154.179 44.0832 152.57 43.7945C151.003 43.5057 149.517 42.9076 148.115 42C146.754 41.0924 145.475 39.8136 144.278 38.1635C143.453 37.0497 142.835 35.7915 142.422 34.389C142.051 32.9451 141.845 31.4807 141.803 29.9956C141.762 28.5105 141.886 27.046 142.175 25.6022C142.463 24.1584 142.876 22.8589 143.412 21.7039C144.113 20.26 145.227 18.94 146.754 17.7436C148.28 16.5473 149.971 15.5985 151.828 14.8972C153.684 14.1959 155.582 13.8041 157.52 13.7215C159.459 13.5978 161.171 13.8866 162.656 14.5878C163.894 15.1654 164.946 16.0111 165.812 17.1249C166.72 18.1974 167.338 19.3731 167.668 20.6519C167.998 21.9308 168.019 23.2302 167.73 24.5503C167.483 25.8291 166.823 27.0048 165.75 28.0773C164.719 29.1087 163.584 29.9543 162.347 30.6144C161.109 31.2331 159.831 31.7901 158.51 32.2851C157.19 32.7389 155.829 33.1308 154.426 33.4608C153.065 33.7908 151.745 34.1621 150.466 34.5746C151.333 35.5646 152.323 36.2041 153.436 36.4928C154.55 36.7403 155.705 36.7816 156.902 36.6166C158.139 36.4516 159.377 36.1215 160.614 35.6265C161.852 35.0902 163.007 34.5127 164.08 33.8939L164.451 33.7083ZM151.951 23.0652C151.003 23.6015 150.301 24.2821 149.847 25.1072C149.394 25.891 149.064 27.0048 148.857 28.4486C149.93 28.1186 151.126 27.768 152.446 27.3967C153.808 27.0254 155.087 26.6335 156.283 26.221C157.479 25.8085 158.49 25.3547 159.315 24.8597C160.14 24.3646 160.552 23.8284 160.552 23.2508C160.552 22.9208 160.491 22.6114 160.367 22.3227C160.284 21.9926 160.078 21.7657 159.748 21.642C158.593 21.2295 157.397 21.147 156.159 21.3945C154.921 21.642 153.89 21.9926 153.065 22.4464L151.951 23.0652ZM226.733 19.9713C227.558 20.2188 228.26 20.6313 228.837 21.2088C229.415 21.7451 229.786 22.3639 229.951 23.0652C230.157 23.7252 230.116 24.4059 229.827 25.1072C229.58 25.7672 229.023 26.3654 228.157 26.9017C228.074 27.0254 228.054 27.5411 228.095 28.4486C228.136 29.3149 228.157 30.3256 228.157 31.4807C228.198 32.6357 228.177 33.8114 228.095 35.0077C228.012 36.1628 227.827 37.0704 227.538 37.7304C227.249 38.2667 226.898 38.7411 226.486 39.1536C226.073 39.5661 225.64 39.958 225.186 40.3293C223.66 41.6081 222.031 42.5775 220.298 43.2376C218.565 43.9389 216.792 44.3514 214.977 44.4751C213.161 44.5989 211.326 44.4133 209.469 43.9182C207.654 43.4232 205.901 42.6394 204.21 41.5669C202.065 40.2055 200.249 38.4523 198.764 36.3072C197.321 34.1621 196.269 31.8519 195.609 29.3768C195.196 27.8092 194.949 26.1797 194.866 24.4884C194.825 22.7558 194.969 21.0645 195.299 19.4144C195.629 17.723 196.165 16.1142 196.908 14.5878C197.651 13.0615 198.579 11.6796 199.693 10.442C201.013 8.99816 202.518 7.80184 204.21 6.85304C205.942 5.90424 207.716 5.07919 209.531 4.3779C210.934 3.80037 212.378 3.36722 213.863 3.07845C215.348 2.78969 216.854 2.68656 218.38 2.76906C219.535 2.85157 220.772 3.05783 222.093 3.38785C223.454 3.67661 224.609 4.21289 225.558 4.99669C226.012 5.36796 226.383 5.82173 226.672 6.35801C227.002 6.89429 227.187 7.4512 227.228 8.02873C227.311 8.56501 227.249 9.10129 227.043 9.63757C226.837 10.1326 226.465 10.5864 225.929 10.9989C225.393 11.4114 224.815 11.6589 224.196 11.7414C223.619 11.7827 223.021 11.7414 222.402 11.6177C221.783 11.4527 221.164 11.2464 220.546 10.9989C219.927 10.7514 219.349 10.5451 218.813 10.3801C218.359 10.2151 217.864 10.1532 217.328 10.1945C216.833 10.1945 216.338 10.2357 215.843 10.3182C214.399 10.7308 212.935 11.2464 211.449 11.8652C210.006 12.4427 208.665 13.1646 207.427 14.0309C206.19 14.8972 205.117 15.9285 204.21 17.1249C203.343 18.3212 202.786 19.765 202.539 21.4564C202.209 23.5602 202.312 25.6641 202.848 27.768C203.385 29.8306 204.375 31.6457 205.819 33.2133C206.767 34.2446 207.861 35.0902 209.098 35.7503C210.377 36.3691 211.697 36.7403 213.058 36.8641C214.42 36.9878 215.76 36.8435 217.08 36.4309C218.4 36.0184 219.576 35.2965 220.607 34.2652V27.5823C219.782 27.6236 218.916 27.7061 218.009 27.8298C217.142 27.9123 216.255 27.9742 215.348 28.0155C214.481 28.0155 213.615 27.9536 212.749 27.8298C211.924 27.6648 211.14 27.3761 210.398 26.9635C209.696 26.551 209.201 26.0147 208.912 25.3547C208.665 24.6534 208.603 23.9727 208.727 23.3127C208.851 22.6114 209.139 21.972 209.593 21.3945C210.047 20.8169 210.666 20.425 211.449 20.2188C211.821 20.1363 212.275 20.095 212.811 20.095C213.388 20.0538 213.945 20.0332 214.481 20.0332C215.059 20.0332 215.575 20.0538 216.028 20.095C216.482 20.095 216.833 20.095 217.08 20.095C218.689 20.095 220.277 20.0744 221.845 20.0332C223.454 19.9919 225.083 19.9713 226.733 19.9713ZM261.342 39.2773C261.672 40.4737 261.61 41.4637 261.157 42.2475C260.703 43.0313 260.063 43.547 259.238 43.7945C258.455 44.0832 257.588 44.0626 256.64 43.7326C255.691 43.4026 254.866 42.7425 254.164 41.7525C253.009 42.6188 251.875 43.2169 250.761 43.547C249.689 43.9182 248.451 44.1245 247.048 44.1657C244.944 44.2483 243.068 44.0007 241.417 43.4232C239.767 42.8869 238.365 42.0619 237.21 40.9481C236.096 39.8343 235.271 38.4523 234.735 36.8022C234.198 35.1109 234.013 33.172 234.178 30.9856C234.26 30.0781 234.405 29.1912 234.611 28.3249C234.858 27.4586 235.126 26.6129 235.415 25.7878C235.745 24.8803 236.199 23.9109 236.777 22.8796C237.395 21.8483 238.014 20.9613 238.633 20.2188C240.861 17.4961 243.645 15.5367 246.986 14.3403C247.564 14.1341 248.348 13.9484 249.338 13.7834C250.328 13.6184 251.318 13.5565 252.308 13.5978C253.339 13.5978 254.309 13.7215 255.216 13.9691C256.165 14.2166 256.866 14.6497 257.32 15.2685C257.691 15.7635 257.96 16.1967 258.125 16.568C258.29 16.9392 258.372 17.3311 258.372 17.7436C258.413 18.1562 258.413 18.6099 258.372 19.105C258.372 19.5587 258.372 20.1363 258.372 20.8376C258.372 21.9926 258.351 23.1271 258.31 24.2409C258.31 25.3134 258.331 26.4066 258.372 27.5204C258.372 27.8917 258.372 28.3867 258.372 29.0055C258.372 29.5831 258.393 30.2018 258.434 30.8619C258.475 31.5219 258.516 32.1613 258.558 32.7801C258.64 33.3576 258.743 33.832 258.867 34.2033L261.342 39.2773ZM248.224 36.4928C248.678 36.2041 249.193 35.8947 249.771 35.5646C250.349 35.1934 250.864 34.7808 251.318 34.3271C250.947 32.1407 250.72 29.9543 250.637 27.768C250.596 25.5816 250.617 23.3746 250.699 21.147C248.843 21.477 247.172 22.2814 245.687 23.5602C244.202 24.839 243.171 26.3448 242.593 28.0773C242.346 28.7786 242.139 29.5006 241.974 30.2431C241.809 30.9856 241.747 31.7076 241.789 32.4088C241.83 33.3576 242.077 34.1621 242.531 34.8221C242.985 35.4409 243.521 35.9153 244.14 36.2453C244.8 36.5753 245.481 36.761 246.182 36.8022C246.925 36.8435 247.605 36.7403 248.224 36.4928ZM280.688 24.3028V23.4365C280.317 22.4877 279.719 21.8276 278.894 21.4564C278.069 21.0438 277.182 20.7963 276.233 20.7138C275.697 20.8788 275.264 21.0645 274.933 21.2707C274.603 21.477 274.315 21.7039 274.067 21.9514C273.82 22.1989 273.593 22.4877 273.387 22.8177C273.18 23.1064 272.933 23.4158 272.644 23.7459V39.958C272.644 41.2368 272.252 42.2269 271.468 42.9282C270.726 43.6707 269.88 44.0832 268.931 44.1657C268.024 44.2895 267.178 44.0626 266.394 43.4851C265.61 42.9488 265.198 42.0206 265.157 40.7006C265.074 37.5241 265.033 33.9145 265.033 29.8718C265.074 25.8291 265.095 21.312 265.095 16.3204C265.095 15.4541 265.342 14.7322 265.837 14.1547C266.374 13.5772 266.992 13.1853 267.694 12.979C268.436 12.7727 269.179 12.7934 269.921 13.0409C270.705 13.2471 271.345 13.7009 271.84 14.4022C274.15 13.2471 276.439 12.8965 278.708 13.3503C281.018 13.7628 283.101 14.8354 284.958 16.568C285.783 15.7429 286.67 15.0004 287.619 14.3403C288.567 13.6803 289.599 13.2471 290.712 13.0409C291.991 12.8346 293.27 12.8965 294.549 13.2265C295.869 13.5153 297.086 14.0103 298.2 14.7116C299.314 15.4129 300.283 16.2792 301.108 17.3105C301.974 18.3418 302.614 19.4556 303.026 20.6519C303.233 21.477 303.336 22.2195 303.336 22.8796V39.7105C303.336 40.2055 303.274 40.6799 303.15 41.1337C302.779 42.2063 302.181 42.9488 301.356 43.3613C300.572 43.8151 299.747 43.9801 298.88 43.8564C298.055 43.7326 297.333 43.3407 296.715 42.6807C296.096 42.0206 295.787 41.1337 295.787 40.0199V23.3746C295.415 22.3845 294.879 21.6626 294.178 21.2088C293.476 20.7551 292.754 20.5488 292.012 20.5901C291.269 20.6313 290.547 20.8994 289.846 21.3945C289.186 21.8895 288.65 22.5702 288.237 23.4365V39.6486C288.237 40.7624 287.866 41.6906 287.124 42.4331C286.422 43.1757 285.638 43.6501 284.772 43.8564C283.906 44.0626 283.081 43.9801 282.297 43.6088C281.554 43.2376 281.121 42.495 280.998 41.3812L280.688 24.3028ZM331.849 33.7083C332.839 33.4608 333.706 33.4608 334.448 33.7083C335.232 33.9145 335.83 34.2858 336.243 34.8221C336.655 35.3584 336.841 36.0184 336.799 36.8022C336.758 37.586 336.408 38.411 335.748 39.2773C335.211 39.9786 334.469 40.5768 333.52 41.0718C332.571 41.5669 331.684 41.9587 330.859 42.2475C328.838 42.9901 326.92 43.5057 325.104 43.7945C323.289 44.0832 321.577 44.0832 319.969 43.7945C318.401 43.5057 316.916 42.9076 315.513 42C314.152 41.0924 312.873 39.8136 311.677 38.1635C310.852 37.0497 310.233 35.7915 309.82 34.389C309.449 32.9451 309.243 31.4807 309.202 29.9956C309.16 28.5105 309.284 27.046 309.573 25.6022C309.862 24.1584 310.274 22.8589 310.811 21.7039C311.512 20.26 312.626 18.94 314.152 17.7436C315.678 16.5473 317.37 15.5985 319.226 14.8972C321.082 14.1959 322.98 13.8041 324.919 13.7215C326.858 13.5978 328.57 13.8866 330.055 14.5878C331.292 15.1654 332.344 16.0111 333.211 17.1249C334.118 18.1974 334.737 19.3731 335.067 20.6519C335.397 21.9308 335.418 23.2302 335.129 24.5503C334.881 25.8291 334.221 27.0048 333.149 28.0773C332.117 29.1087 330.983 29.9543 329.745 30.6144C328.508 31.2331 327.229 31.7901 325.909 32.2851C324.589 32.7389 323.227 33.1308 321.825 33.4608C320.464 33.7908 319.144 34.1621 317.865 34.5746C318.731 35.5646 319.721 36.2041 320.835 36.4928C321.949 36.7403 323.104 36.7816 324.3 36.6166C325.538 36.4516 326.775 36.1215 328.013 35.6265C329.25 35.0902 330.405 34.5127 331.478 33.8939L331.849 33.7083ZM319.35 23.0652C318.401 23.6015 317.7 24.2821 317.246 25.1072C316.792 25.891 316.462 27.0048 316.256 28.4486C317.328 28.1186 318.525 27.768 319.845 27.3967C321.206 27.0254 322.485 26.6335 323.681 26.221C324.878 25.8085 325.888 25.3547 326.713 24.8597C327.538 24.3646 327.951 23.8284 327.951 23.2508C327.951 22.9208 327.889 22.6114 327.765 22.3227C327.683 21.9926 327.476 21.7657 327.146 21.642C325.991 21.2295 324.795 21.147 323.558 21.3945C322.32 21.642 321.289 21.9926 320.464 22.4464L319.35 23.0652ZM392.469 40.2055C392.346 41.1131 392.036 41.8762 391.541 42.495C391.046 43.1551 390.469 43.6088 389.809 43.8564C389.19 44.1039 388.509 44.1245 387.767 43.9182C387.065 43.7532 386.405 43.2788 385.787 42.495C385.25 41.835 384.941 41.1131 384.858 40.3293C384.817 39.5042 384.714 38.6998 384.549 37.916C384.137 35.6471 383.538 33.3164 382.755 30.9238C380.197 30.965 377.66 30.9856 375.144 30.9856C372.627 30.9856 370.111 31.0063 367.594 31.0475C367.223 32.1201 366.893 33.2133 366.604 34.3271C366.357 35.4409 366.109 36.5341 365.862 37.6066C365.655 38.4317 365.47 39.298 365.305 40.2055C365.14 41.0718 364.769 41.835 364.191 42.495C363.49 43.3201 362.727 43.7738 361.902 43.8564C361.118 43.9801 360.396 43.8564 359.736 43.4851C359.117 43.1138 358.601 42.5569 358.189 41.8144C357.818 41.0306 357.694 40.1436 357.818 39.1536C357.941 37.8748 358.189 36.6166 358.56 35.379C358.931 34.1414 359.282 32.9039 359.612 31.6663C361.468 24.5709 363.861 17.7024 366.79 11.0608C367.037 10.4832 367.285 9.92634 367.532 9.39006C367.821 8.85378 368.089 8.3175 368.337 7.78122C368.626 7.20368 368.914 6.5849 369.203 5.92486C369.492 5.26483 369.822 4.66667 370.193 4.13039C370.606 3.55286 371.08 3.07845 371.616 2.70718C372.153 2.29466 372.813 2.0884 373.597 2.0884C374.628 2.0884 375.494 2.41842 376.195 3.07845C379.001 5.88361 381.311 9.06004 383.126 12.6077C384.941 16.1142 386.57 19.7031 388.014 23.3746C388.881 23.3333 389.726 23.3333 390.551 23.3746C391.376 23.4158 392.119 23.7871 392.779 24.4884C393.356 25.0659 393.686 25.6847 393.769 26.3448C393.893 27.0048 393.831 27.6442 393.583 28.263C393.377 28.8818 393.006 29.418 392.469 29.8718C391.974 30.3256 391.356 30.635 390.613 30.8C391.026 32.2438 391.376 33.7289 391.665 35.2552C391.995 36.7403 392.263 38.246 392.469 39.7724V40.2055ZM379.846 23.3746C379.062 21.5182 378.217 19.6825 377.309 17.8674C376.443 16.0111 375.453 14.2578 374.339 12.6077C373.514 14.4228 372.73 16.2379 371.988 18.053C371.286 19.8269 370.626 21.642 370.008 23.4983C371.946 23.4571 373.638 23.4365 375.082 23.4365C376.567 23.4365 378.155 23.4158 379.846 23.3746ZM423.819 37.0497C424.52 38.246 424.747 39.3186 424.5 40.2674C424.293 41.2162 423.839 41.9175 423.138 42.3713C422.437 42.8663 421.571 43.0519 420.539 42.9282C419.549 42.8457 418.58 42.33 417.631 41.3812C416.641 42.0825 415.61 42.6188 414.537 42.9901C413.465 43.4026 412.33 43.7532 411.134 44.042C409.277 44.4545 407.483 44.4133 405.75 43.9182C404.059 43.4645 402.553 42.7013 401.233 41.6287C399.913 40.5562 398.841 39.2361 398.016 37.6685C397.19 36.0597 396.737 34.3271 396.654 32.4707C396.53 30.4081 396.675 28.428 397.087 26.5304C397.541 24.6328 398.242 22.9002 399.191 21.3326C400.14 19.765 401.378 18.4243 402.904 17.3105C404.472 16.1967 406.307 15.4129 408.411 14.9591C409.649 14.7116 410.886 14.5878 412.124 14.5878C413.403 14.5878 414.661 14.691 415.898 14.8972C415.857 13.9897 415.816 12.9584 415.775 11.8033C415.775 10.607 415.775 9.45193 415.775 8.33812C415.775 7.22431 415.816 6.23426 415.898 5.36796C415.981 4.46041 416.084 3.821 416.208 3.44973C416.497 2.70718 416.93 2.15028 417.507 1.77901C418.126 1.36648 418.765 1.16022 419.425 1.16022C420.086 1.11897 420.725 1.28398 421.344 1.65525C422.004 1.98527 422.519 2.50092 422.891 3.20221C422.973 3.40847 423.076 3.61473 423.2 3.821C423.324 3.98601 423.386 4.17164 423.386 4.3779C423.427 9.78196 423.427 15.1241 423.386 20.4044C423.386 25.6847 423.386 31.0269 423.386 36.4309C423.551 36.6785 423.695 36.8847 423.819 37.0497ZM415.218 33.6464C415.3 33.5227 415.445 33.3989 415.651 33.2751C415.898 33.1514 416.022 32.9864 416.022 32.7801C416.022 31.0475 416.022 29.3562 416.022 27.7061C416.022 26.0147 416.002 24.3028 415.96 22.5702C414.97 22.3639 413.939 22.2401 412.866 22.1989C411.794 22.1576 410.742 22.2608 409.711 22.5083C408.721 22.7558 407.792 23.1683 406.926 23.7459C406.101 24.3234 405.441 25.1484 404.946 26.221C404.698 27.0048 404.472 27.7886 404.265 28.5724C404.059 29.3562 403.935 30.1193 403.894 30.8619C403.894 31.6044 403.997 32.347 404.203 33.0895C404.41 33.7908 404.76 34.4715 405.255 35.1315C405.42 35.2965 405.606 35.4615 405.812 35.6265C406.06 35.7915 406.514 36.0803 407.174 36.4928C408.7 36.6166 410.144 36.4722 411.505 36.0597C412.908 35.6471 414.145 34.8427 415.218 33.6464ZM428.995 37.8541C428.747 37.1529 428.644 36.4722 428.685 35.8122C428.727 35.1109 428.892 34.4921 429.18 33.9558C429.51 33.3783 429.964 32.9451 430.542 32.6564C431.119 32.3263 431.821 32.2026 432.646 32.2851C433.099 32.3263 433.512 32.4501 433.883 32.6564C434.254 32.8626 434.584 33.1101 434.873 33.3989C435.203 33.6877 435.513 33.9971 435.801 34.3271C436.131 34.6571 436.461 34.9459 436.791 35.1934C437.493 35.7297 438.235 36.1215 439.019 36.3691C439.803 36.6166 440.628 36.8022 441.494 36.926C442.072 36.926 442.526 36.7816 442.856 36.4928C443.227 36.2041 443.474 35.8534 443.598 35.4409C443.722 35.0284 443.742 34.5952 443.66 34.1414C443.619 33.6464 443.474 33.2545 443.227 32.9657C442.526 32.2645 441.659 31.8107 440.628 31.6044C439.638 31.3982 438.71 31.1506 437.843 30.8619C436.606 30.4494 435.389 29.9337 434.193 29.3149C432.996 28.6549 432.027 27.768 431.284 26.6541C430.5 25.4991 430.026 24.2821 429.861 23.0033C429.737 21.6832 429.84 20.4044 430.17 19.1669C430.542 17.9293 431.14 16.7948 431.965 15.7635C432.79 14.7322 433.78 13.8866 434.935 13.2265C435.801 12.7315 436.75 12.4221 437.781 12.2983C438.813 12.1333 439.844 12.0921 440.875 12.1746C441.948 12.2571 443 12.4634 444.031 12.7934C445.063 13.0821 446.011 13.4122 446.878 13.7834C447.868 14.2372 448.61 14.8766 449.105 15.7017C449.6 16.5267 449.827 17.3724 449.786 18.2387C449.786 19.0637 449.497 19.7856 448.92 20.4044C448.383 21.0232 447.579 21.3326 446.506 21.3326C445.846 21.3326 445.248 21.2295 444.712 21.0232C444.176 20.7757 443.619 20.5488 443.041 20.3425C442.299 20.0538 441.494 19.8681 440.628 19.7856C439.762 19.6619 439.06 19.7031 438.524 19.9094C438.359 19.9506 438.173 20.095 437.967 20.3425C437.761 20.5488 437.596 20.8169 437.472 21.147C437.39 21.477 437.369 21.807 437.41 22.137C437.493 22.467 437.72 22.7352 438.091 22.9414C439.081 23.4777 440.133 23.8902 441.247 24.179C442.361 24.4678 443.454 24.7978 444.526 25.1691C445.599 25.5403 446.589 26.0147 447.496 26.5923C448.445 27.1698 449.229 27.9948 449.848 29.0674C450.755 30.635 451.209 32.2851 451.209 34.0177C451.25 35.709 450.92 37.2972 450.219 38.7823C449.518 40.2674 448.486 41.5256 447.125 42.5569C445.764 43.6295 444.176 44.2689 442.361 44.4751C441.082 44.5989 439.823 44.5164 438.586 44.2276C437.348 43.9801 436.152 43.547 434.997 42.9282C433.842 42.3506 432.769 41.6494 431.779 40.8243C430.789 39.9993 429.923 39.133 429.18 38.2254L428.995 37.8541Z" fill="white"/>
</svg>
